<?xml version="1.0" encoding="UTF-8" standalone="no"?>
<svg width="29px" height="27px" viewBox="0 0 29 27" version="1.1" xmlns="http://www.w3.org/2000/svg" xmlns:xlink="http://www.w3.org/1999/xlink">
    <!-- Generator: Sketch 39.1 (31720) - http://www.bohemiancoding.com/sketch -->
    <title>24-hrs-reception</title>
    <desc>Created with Sketch.</desc>
    <defs></defs>
    <g id="Welcome" stroke="none" stroke-width="1" fill="none" fill-rule="evenodd">
        <g id="Facilities" transform="translate(-185.000000, -819.000000)" fill="#DC4B85">
            <g id="ICONS" transform="translate(184.000000, 729.000000)">
                <g id="24-hrs-reception" transform="translate(1.000000, 90.000000)">
                    <g id="Capa_1">
                        <path d="M9.31138164,12.2758355 L9.31138164,10.4959504 C9.31138164,10.2256684 9.50191304,9.99345431 9.76550483,9.94220366 L12.8763502,9.33791123 L12.8763502,8.24014621 C12.8763502,7.80744125 12.526529,7.45538381 12.0965024,7.45538381 L10.4320145,7.45538381 C10.4270411,7.76246475 10.1780193,8.00990601 9.87169807,8.00990601 C9.56222464,8.00990601 9.31131159,7.75738903 9.31131159,7.44593734 C9.31131159,6.8291671 9.80984541,6.32744648 10.422628,6.32744648 L12.0965024,6.32744648 C13.1444952,6.32744648 13.9971232,7.18545431 13.9971232,8.24014621 L13.9971232,9.80346736 C13.9971232,10.0737493 13.8065918,10.3059634 13.543,10.3572141 L10.4321546,10.9615065 L10.4321546,11.7119373 L13.4368068,11.7119373 C13.7462802,11.7119373 13.9971932,11.9644543 13.9971932,12.275906 C13.9971932,12.5873577 13.7462802,12.8398747 13.4368068,12.8398747 L9.87176812,12.8398747 C9.56229469,12.8398042 9.31138164,12.5872872 9.31138164,12.2758355 L9.31138164,12.2758355 Z M16.9413937,11.043141 L18.5183913,11.043141 L18.5183913,12.275765 C18.5183913,12.5872167 18.7693043,12.8397337 19.0787778,12.8397337 C19.3882512,12.8397337 19.6391643,12.5872167 19.6391643,12.275765 L19.6391643,6.89127415 C19.6391643,6.57982245 19.3882512,6.32730548 19.0787778,6.32730548 C18.7693043,6.32730548 18.5183913,6.57982245 18.5183913,6.89127415 L18.5183913,9.91520366 L16.9413937,9.91520366 C16.5113671,9.91520366 16.1615459,9.56314621 16.1615459,9.13037076 L16.1615459,6.89127415 C16.1615459,6.57982245 15.9106329,6.32730548 15.6011594,6.32730548 C15.291686,6.32730548 15.0407729,6.57982245 15.0407729,6.89127415 L15.0407729,9.13037076 C15.0407729,10.1851332 15.893401,11.043141 16.9413937,11.043141 L16.9413937,11.043141 Z M2.2704058,21.7991514 L13.9147464,21.7991514 L13.9147464,23.7693055 L10.3120217,23.7693055 C10.0025483,23.7693055 9.75163527,24.0218225 9.75163527,24.3332742 C9.75163527,24.6447258 10.0025483,24.8972428 10.3120217,24.8972428 L14.4628043,24.8972428 C14.4669372,24.8973133 14.471,24.8973838 14.4751329,24.8973838 C14.4792657,24.8973838 14.4833285,24.8973133 14.4874614,24.8972428 L18.6384541,24.8972428 C18.9479275,24.8972428 19.1988406,24.6447258 19.1988406,24.3332742 C19.1988406,24.0218225 18.9479275,23.7693055 18.6384541,23.7693055 L15.0355193,23.7693055 L15.0355193,21.7991514 L26.6802101,21.7991514 C26.9896836,21.7991514 27.2405966,21.5466345 27.2405966,21.2351828 L27.2405966,5.05957441 C27.2405966,4.74812272 26.9896836,4.49560574 26.6802101,4.49560574 L24.5024783,4.49560574 C24.1930048,4.49560574 23.9420918,4.74812272 23.9420918,5.05957441 C23.9420918,5.37102611 24.1930048,5.62354308 24.5024783,5.62354308 L26.1198237,5.62354308 L26.1198237,20.6711436 L2.83079227,20.6711436 L2.83079227,5.62354308 L4.44799758,5.62354308 C4.75747101,5.62354308 5.00838406,5.37102611 5.00838406,5.05957441 C5.00838406,4.74812272 4.75747101,4.49560574 4.44799758,4.49560574 L2.2704058,4.49560574 C1.96093237,4.49560574 1.71001932,4.74812272 1.71001932,5.05957441 L1.71001932,21.2351123 C1.71001932,21.5466345 1.96093237,21.7991514 2.2704058,21.7991514 L2.2704058,21.7991514 Z M5.01300725,9.58351958 C5.01300725,4.3326893 9.25779469,0.0608381201 14.475343,0.0608381201 C19.6927512,0.0608381201 23.9374686,4.3326893 23.9374686,9.58351958 C23.9374686,14.8343499 19.6927512,19.1062715 14.475343,19.1062715 C9.25779469,19.1062715 5.01300725,14.8344204 5.01300725,9.58351958 L5.01300725,9.58351958 Z M6.13378019,9.58351958 C6.13378019,14.2124334 9.87583092,17.9783342 14.475343,17.9783342 C19.074785,17.9783342 22.8166957,14.2124334 22.8166957,9.58351958 C22.8166957,4.95467624 19.074785,1.18877546 14.475343,1.18877546 C9.87583092,1.18877546 6.13378019,4.95467624 6.13378019,9.58351958 L6.13378019,9.58351958 Z M28.3900894,25.8318799 L0.560386473,25.8318799 C0.250913043,25.8318799 0,26.0843969 0,26.3958486 C0,26.7073003 0.250913043,26.9598172 0.560386473,26.9598172 L28.3900894,26.9598172 C28.6995628,26.9598172 28.9504758,26.7073003 28.9504758,26.3958486 C28.9504758,26.0843969 28.6995628,25.8318799 28.3900894,25.8318799 L28.3900894,25.8318799 Z" id="XMLID_1157_"></path>
                    </g>
                </g>
            </g>
        </g>
    </g>
</svg>