<?xml version="1.0" encoding="UTF-8" standalone="no"?>
<svg width="32px" height="32px" viewBox="0 0 32 32" version="1.1" xmlns="http://www.w3.org/2000/svg" xmlns:xlink="http://www.w3.org/1999/xlink">
    <!-- Generator: Sketch 39.1 (31720) - http://www.bohemiancoding.com/sketch -->
    <title>ac-adapters</title>
    <desc>Created with Sketch.</desc>
    <defs></defs>
    <g id="Welcome" stroke="none" stroke-width="1" fill="none" fill-rule="evenodd">
        <g id="Facilities" transform="translate(-847.000000, -729.000000)" fill="#DC4B85">
            <g id="ICONS" transform="translate(184.000000, 729.000000)">
                <g id="ac-adapters" transform="translate(663.000000, 0.000000)">
                    <g id="Capa_1">
                        <path d="M19.0373626,31.9662222 C18.2872967,31.9662222 17.554989,31.7144889 16.9466374,31.2341333 C16.1141099,30.5763556 15.6365714,29.5866667 15.6365714,28.5187556 L15.6365714,21.5770667 L14.786989,21.5770667 C14.5928791,21.5770667 14.4353407,21.4177778 14.4353407,21.2215111 L14.4353407,19.5678222 C12.7027692,19.5427556 11.3007473,18.1100444 11.3007473,16.3523556 L11.3007473,12.2805333 L10.6978462,12.2805333 C10.5037363,12.2805333 10.3461978,12.1212444 10.3461978,11.9249778 C10.3461978,11.7287111 10.5037363,11.5694222 10.6978462,11.5694222 L12.6419341,11.5694222 L12.6419341,7.52675556 C12.6419341,7.33048889 12.7994725,7.1712 12.9935824,7.1712 C13.1876923,7.1712 13.3452308,7.33048889 13.3452308,7.52675556 L13.3452308,11.5694222 L18.6312088,11.5694222 L18.6312088,7.52675556 C18.6312088,7.33048889 18.7887473,7.1712 18.9828571,7.1712 C19.176967,7.1712 19.3345055,7.33048889 19.3345055,7.52675556 L19.3345055,11.5694222 L21.2784176,11.5694222 C21.4725275,11.5694222 21.6300659,11.7287111 21.6300659,11.9249778 C21.6300659,12.1212444 21.4725275,12.2805333 21.2784176,12.2805333 L20.6755165,12.2805333 L20.6755165,16.3525333 C20.6755165,18.1102222 19.2734945,19.5429333 17.5410989,19.568 L17.5410989,21.2216889 C17.5410989,21.4179556 17.3835604,21.5772444 17.1894505,21.5772444 L16.3396923,21.5772444 L16.3396923,28.5189333 C16.3396923,29.3665778 16.7185934,30.152 17.3795165,30.6739556 C18.0404396,31.1959111 18.8852747,31.3776 19.698989,31.1726222 C26.5135824,29.4542222 31.2731429,23.2876444 31.2731429,16.1763556 C31.2731429,11.9792 29.6374505,8.05244444 26.6672527,5.11928889 C23.6982857,2.18684444 19.7737143,0.629511111 15.6188132,0.725688889 C7.27261538,0.9248 0.58232967,7.95964444 0.705054945,16.4078222 C0.79789011,22.7976889 4.67920879,28.3845333 10.5932308,30.6408889 C10.7748571,30.7102222 10.8666374,30.9152 10.7980659,31.0990222 C10.7294945,31.2826667 10.5267692,31.3756444 10.344967,31.3061333 C7.37406593,30.1728 4.82391209,28.1868444 2.9701978,25.5633778 C1.07621978,22.8826667 0.0497582418,19.7203556 0.00175824176,16.4181333 C-0.126593407,7.58151111 6.87173626,0.222933333 15.6021099,0.0147555556 C19.9500659,-0.0910222222 24.0529231,1.54311111 27.1586813,4.61013333 C30.2654945,7.67822222 31.9764396,11.7857778 31.9764396,16.176 C31.9764396,23.6144 26.9978022,30.0648889 19.8691868,31.8622222 C19.5931429,31.9319111 19.3139341,31.9662222 19.0373626,31.9662222 L19.0373626,31.9662222 Z M15.1386374,20.8659556 L16.837978,20.8659556 L16.837978,19.5681778 L15.1386374,19.5681778 L15.1386374,20.8659556 L15.1386374,20.8659556 Z M17.1896264,18.8570667 L17.4952088,18.8570667 C18.8611868,18.8570667 19.9723956,17.7335111 19.9723956,16.3523556 L19.9723956,12.2805333 L12.0042198,12.2805333 L12.0042198,16.3525333 C12.0042198,17.7336889 13.1154286,18.8572444 14.4814066,18.8572444 L17.1896264,18.8572444 L17.1896264,18.8570667 Z M18.7011868,17.3799111 L13.2754286,17.3799111 C13.0813187,17.3799111 12.9237802,17.2206222 12.9237802,17.0243556 C12.9237802,16.8280889 13.0813187,16.6688 13.2754286,16.6688 L18.7011868,16.6688 C18.8952967,16.6688 19.0528352,16.8280889 19.0528352,17.0243556 C19.0528352,17.2206222 18.8952967,17.3799111 18.7011868,17.3799111 L18.7011868,17.3799111 Z M18.9828571,15.6910222 L12.9935824,15.6910222 C12.7994725,15.6910222 12.6419341,15.5317333 12.6419341,15.3354667 C12.6419341,15.1392 12.7994725,14.9799111 12.9935824,14.9799111 L18.9828571,14.9799111 C19.176967,14.9799111 19.3345055,15.1392 19.3345055,15.3354667 C19.3345055,15.5317333 19.1771429,15.6910222 18.9828571,15.6910222 L18.9828571,15.6910222 Z M18.9828571,14.0021333 L12.9935824,14.0021333 C12.7994725,14.0021333 12.6419341,13.8428444 12.6419341,13.6465778 C12.6419341,13.4503111 12.7994725,13.2910222 12.9935824,13.2910222 L18.9828571,13.2910222 C19.176967,13.2910222 19.3345055,13.4503111 19.3345055,13.6465778 C19.3345055,13.8428444 19.1771429,14.0021333 18.9828571,14.0021333 L18.9828571,14.0021333 Z" id="Shape"></path>
                    </g>
                </g>
            </g>
        </g>
    </g>
</svg>