<?xml version="1.0" encoding="UTF-8" standalone="no"?>
<svg width="31px" height="27px" viewBox="0 0 31 27" version="1.1" xmlns="http://www.w3.org/2000/svg" xmlns:xlink="http://www.w3.org/1999/xlink">
    <!-- Generator: Sketch 39.1 (31720) - http://www.bohemiancoding.com/sketch -->
    <title>bag-storage</title>
    <desc>Created with Sketch.</desc>
    <defs></defs>
    <g id="Welcome" stroke="none" stroke-width="1" fill="none" fill-rule="evenodd">
        <g id="Facilities" transform="translate(-848.000000, -777.000000)" fill="#DC4B85">
            <g id="ICONS" transform="translate(184.000000, 729.000000)">
                <g id="bag-storage" transform="translate(664.000000, 48.000000)">
                    <g id="Group">
                        <path d="M27.2840173,4.77641278 L27.25054,4.77641278 L27.25054,4.21253071 C27.25054,3.64553071 26.7850043,3.18427518 26.212743,3.18427518 L24.6058315,3.18427518 C24.0335702,3.18427518 23.5680346,3.64553071 23.5680346,4.21253071 L23.5680346,4.77641278 L21.3585313,4.77641278 L21.3585313,2.62039312 C21.3585313,1.17552826 20.172095,0 18.7138229,0 L12.2861771,0 C10.827905,0 9.64146868,1.17552826 9.64146868,2.62039312 L9.64146868,4.77641278 L7.43196544,4.77641278 L7.43196544,4.21253071 C7.43196544,3.64553071 6.96642981,3.18427518 6.39416847,3.18427518 L4.78725702,3.18427518 C4.21499568,3.18427518 3.74946004,3.64553071 3.74946004,4.21253071 L3.74946004,4.77641278 L3.71598272,4.77641278 C1.66696976,4.77641278 0,6.42805651 0,8.45823096 L0,23.3181818 C0,25.3483563 1.66696976,27 3.71598272,27 L27.2840173,27 C29.3330302,27 31,25.3483563 31,23.3181818 L31,8.45823096 C31,6.42805651 29.3330302,4.77641278 27.2840173,4.77641278 L27.2840173,4.77641278 Z M24.5723542,4.21253071 C24.5723542,4.19422113 24.587419,4.17936118 24.6058315,4.17936118 L26.212743,4.17936118 C26.2311555,4.17936118 26.2462203,4.19422113 26.2462203,4.21253071 L26.2462203,4.77641278 L24.5723542,4.77641278 L24.5723542,4.21253071 L24.5723542,4.21253071 Z M10.6457883,2.62039312 C10.6457883,1.72421867 11.3816199,0.995085995 12.2861771,0.995085995 L18.7138229,0.995085995 C19.6183801,0.995085995 20.3542117,1.72421867 20.3542117,2.62039312 L20.3542117,4.77641278 L19.2159827,4.77641278 L19.2159827,2.62039312 C19.2159827,2.34561671 18.991216,2.12285012 18.7138229,2.12285012 L12.2861771,2.12285012 C12.008784,2.12285012 11.7840173,2.34561671 11.7840173,2.62039312 L11.7840173,4.77641278 L10.6457883,4.77641278 L10.6457883,2.62039312 L10.6457883,2.62039312 Z M12.7883369,4.77641278 L12.7883369,3.11793612 L18.2116631,3.11793612 L18.2116631,4.77641278 L12.7883369,4.77641278 L12.7883369,4.77641278 Z M4.7537797,4.21253071 C4.7537797,4.19422113 4.76884449,4.17936118 4.78725702,4.17936118 L6.39416847,4.17936118 C6.41258099,4.17936118 6.42764579,4.19422113 6.42764579,4.21253071 L6.42764579,4.77641278 L4.7537797,4.77641278 L4.7537797,4.21253071 L4.7537797,4.21253071 Z M29.9956803,23.3181818 C29.9956803,24.7996658 28.7792484,26.004914 27.2840173,26.004914 L3.71598272,26.004914 C2.22075162,26.004914 1.00431965,24.7996658 1.00431965,23.3181818 L1.00431965,8.45823096 C1.00431965,6.97674693 2.22075162,5.77149877 3.71598272,5.77149877 L27.2840173,5.77149877 C28.7792484,5.77149877 29.9956803,6.97674693 29.9956803,8.45823096 L29.9956803,23.3181818 L29.9956803,23.3181818 Z" id="Shape"></path>
                        <path d="M26.7483801,15.3906634 L4.25161987,15.3906634 C3.97422678,15.3906634 3.74946004,15.61343 3.74946004,15.8882064 C3.74946004,16.1629828 3.97422678,16.3857494 4.25161987,16.3857494 L26.7483801,16.3857494 C27.0257732,16.3857494 27.25054,16.1629828 27.25054,15.8882064 C27.25054,15.61343 27.0257732,15.3906634 26.7483801,15.3906634 L26.7483801,15.3906634 Z" id="Shape"></path>
                        <path d="M26.7483801,10.0835381 L4.25161987,10.0835381 C3.97422678,10.0835381 3.74946004,10.3063047 3.74946004,10.5810811 C3.74946004,10.8558575 3.97422678,11.0786241 4.25161987,11.0786241 L26.7483801,11.0786241 C27.0257732,11.0786241 27.25054,10.8558575 27.25054,10.5810811 C27.25054,10.3063047 27.0257732,10.0835381 26.7483801,10.0835381 L26.7483801,10.0835381 Z" id="Shape"></path>
                        <path d="M26.7483801,20.6977887 L4.25161987,20.6977887 C3.97422678,20.6977887 3.74946004,20.9205553 3.74946004,21.1953317 C3.74946004,21.4701081 3.97422678,21.6928747 4.25161987,21.6928747 L26.7483801,21.6928747 C27.0257732,21.6928747 27.25054,21.4701081 27.25054,21.1953317 C27.25054,20.9205553 27.0257732,20.6977887 26.7483801,20.6977887 L26.7483801,20.6977887 Z" id="Shape"></path>
                    </g>
                </g>
            </g>
        </g>
    </g>
</svg>