<?xml version="1.0" encoding="UTF-8" standalone="no"?>
<svg width="29px" height="21px" viewBox="0 0 29 21" version="1.1" xmlns="http://www.w3.org/2000/svg" xmlns:xlink="http://www.w3.org/1999/xlink">
    <!-- Generator: Sketch 39.1 (31720) - http://www.bohemiancoding.com/sketch -->
    <title>book-exchange</title>
    <desc>Created with Sketch.</desc>
    <defs></defs>
    <g id="Welcome" stroke="none" stroke-width="1" fill="none" fill-rule="evenodd">
        <g id="Facilities" transform="translate(-645.000000, -732.000000)" fill="#DC4B85">
            <g id="ICONS" transform="translate(184.000000, 729.000000)">
                <g id="book-exchange" transform="translate(461.000000, 3.000000)">
                    <g id="Capa_1">
                        <g id="Group">
                            <path d="M28.4445931,2.69530435 L27.1687353,2.69530435 L27.1687353,1.50244816 C27.1687353,1.23527759 26.9663039,1.01045819 26.6978407,0.979274247 L19.3056838,0.121434783 C17.6479216,-0.071006689 15.9885245,0.202906355 14.4887696,0.913816054 C12.9889436,0.202906355 11.3298309,-0.0710769231 9.67185539,0.121434783 L2.27969853,0.979274247 C2.01123529,1.01045819 1.80880392,1.23527759 1.80880392,1.50244816 L1.80880392,2.69530435 L0.533088235,2.69530435 C0.238610294,2.69530435 0,2.9311505 0,3.2220602 L0,20.4597592 C0,20.7506689 0.238610294,20.9865151 0.533088235,20.9865151 L28.4445931,20.9865151 C28.7390711,20.9865151 28.9776814,20.7506689 28.9776814,20.4597592 L28.9776814,3.2220602 C28.9776814,2.9311505 28.739,2.69530435 28.4445931,2.69530435 L28.4445931,2.69530435 Z M19.1812966,1.16778261 L26.1024877,1.97097993 L26.1024877,17.6371906 L19.3056838,16.8484615 C17.8419657,16.6785652 16.3771103,16.8728328 15.0218578,17.4098428 L15.0218578,1.83065217 C16.3205319,1.23120401 17.7516961,1.00188963 19.1812966,1.16778261 L19.1812966,1.16778261 Z M9.79631373,1.16778261 C11.2258431,1.0018194 12.6571495,1.23120401 13.9557525,1.83065217 L13.9557525,17.4099833 C12.9191446,16.9992542 11.8185662,16.7886221 10.7033456,16.7886221 C10.3605343,16.7886221 10.0161593,16.8084983 9.67192647,16.8483913 L2.87505147,17.6371204 L2.87505147,1.97097993 L9.79631373,1.16778261 L9.79631373,1.16778261 Z M27.9115049,19.9330033 L1.06617647,19.9330033 L1.06617647,3.74881605 L1.808875,3.74881605 L1.808875,18.2294047 C1.808875,18.3798462 1.87391176,18.5230535 1.98770833,18.6229967 C2.10143382,18.7229398 2.25304412,18.7701371 2.40415686,18.7525786 L9.79631373,17.8947391 C11.3321765,17.7164147 12.8703137,17.9939097 14.2434779,18.6970936 C14.3972917,18.7758963 14.5802475,18.7758963 14.7340613,18.6970936 C16.1071544,17.9939097 17.644723,17.7164147 19.1812255,17.8947391 L26.5733113,18.7525786 C26.5940662,18.7549666 26.6148211,18.7561605 26.6355049,18.7561605 C26.7653652,18.7561605 26.8916716,18.7092441 26.9897598,18.6229967 C27.1035564,18.5230535 27.1685931,18.3798462 27.1685931,18.2294047 L27.1685931,3.74881605 L27.9113627,3.74881605 L27.9113627,19.9330033 L27.9115049,19.9330033 Z" id="Shape"></path>
                            <path d="M16.2496667,4.39617085 C17.2051029,4.0889976 18.188402,4.00261564 19.1714877,4.13912774 L24.7216471,4.91025708 C24.7428284,4.91320096 24.7637966,4.91463085 24.7845515,4.91463085 C25.0511667,4.91463085 25.2814608,4.67836315 25.3133039,4.35731159 C25.3475637,4.01127907 25.1383799,3.69788161 24.8460343,3.65725602 L19.2958039,2.88612668 C18.1763186,2.7306055 17.057473,2.82909944 15.9701863,3.17874873 C15.6860147,3.27009324 15.5183407,3.61671453 15.5955319,3.95290606 C15.672723,4.28909759 15.9658505,4.48743125 16.2496667,4.39617085 L16.2496667,4.39617085 Z" id="Shape"></path>
                            <path d="M4.17329902,4.91573625 C4.19405392,4.91573625 4.21509314,4.91430546 4.23620343,4.91135972 L9.7858652,4.13982813 C10.7676716,4.00440822 11.7624142,4.09286461 12.7078284,4.39779086 C12.9917868,4.48927715 13.2849142,4.29107088 13.3622475,3.95458312 C13.439652,3.61817952 13.272049,3.27125543 12.9879485,3.17968497 C11.9115368,2.83250838 10.7801103,2.73167988 9.66190441,2.88595254 L4.1117451,3.65756829 C3.81939951,3.69821951 3.61014461,4.01181465 3.64447549,4.35806544 C3.67638971,4.67931951 3.90668382,4.91573625 4.17329902,4.91573625 L4.17329902,4.91573625 Z" id="Shape"></path>
                            <path d="M16.2496667,6.81231648 C17.2051029,6.50513779 18.1882598,6.41875429 19.1714877,6.55526881 L24.7216471,7.32641181 C24.7428284,7.32935574 24.7637966,7.33078566 24.7845515,7.33078566 C25.0511667,7.33078566 25.2814608,7.09451377 25.3133039,6.77345652 C25.3475637,6.42741788 25.1383799,6.11401487 24.8460343,6.07338855 L19.2958039,5.30224555 C18.1764608,5.14680573 17.0575441,5.24521731 15.9701863,5.59487279 C15.6860147,5.68621891 15.5183407,6.03284635 15.5955319,6.36904383 C15.672723,6.70515721 15.9658505,6.9036626 16.2496667,6.81231648 L16.2496667,6.81231648 Z" id="Shape"></path>
                            <path d="M4.17329902,7.33178976 C4.19405392,7.33178976 4.21509314,7.33035897 4.23620343,7.32741323 L9.7858652,6.55588164 C10.7670319,6.4205459 11.7623431,6.50891812 12.7078284,6.81384437 C12.9917868,6.90533066 13.2849142,6.70712439 13.3622475,6.37063663 C13.439652,6.03423304 13.272049,5.68730894 12.9879485,5.59573848 C11.9113946,5.24856189 10.7796127,5.1477334 9.66190441,5.30200605 L4.1117451,6.0736218 C3.81939951,6.11427302 3.61014461,6.42786817 3.64447549,6.77411895 C3.67638971,7.09537302 3.90668382,7.33178976 4.17329902,7.33178976 L4.17329902,7.33178976 Z" id="Shape"></path>
                            <path d="M16.2496667,9.22837966 C17.2051029,8.92119857 18.1882598,8.8348144 19.1714877,8.97132998 L24.7216471,9.74247902 C24.7428284,9.74542298 24.7637966,9.7468529 24.7845515,9.7468529 C25.0511667,9.7468529 25.2814608,9.51057916 25.3133039,9.1895194 C25.3475637,8.84347805 25.1383799,8.53007258 24.8460343,8.48944595 L19.2958039,7.71829691 C18.1764608,7.56285587 17.0575441,7.66135233 15.9701863,8.01092644 C15.6860147,8.10227328 15.5183407,8.44890343 15.5955319,8.78510355 C15.672723,9.12130367 15.9658505,9.31972651 16.2496667,9.22837966 L16.2496667,9.22837966 Z" id="Shape"></path>
                            <path d="M4.17329902,9.74788982 C4.19405392,9.74788982 4.21509314,9.74645905 4.23620343,9.74351335 L9.7858652,8.97199219 C10.7669608,8.83665827 11.7623431,8.9250293 12.7078284,9.22995143 C12.9917868,9.32152065 13.2849142,9.12323289 13.3622475,8.78674968 C13.439652,8.45035063 13.272049,8.10343122 12.9879485,8.01186201 C11.9114657,7.66469011 10.7796838,7.56386298 9.66190441,7.71804938 L4.1117451,8.4896547 C3.81939951,8.53030537 3.61014461,8.84389628 3.64447549,9.19014238 C3.67638971,9.51147628 3.90668382,9.74788982 4.17329902,9.74788982 L4.17329902,9.74788982 Z" id="Shape"></path>
                            <path d="M16.2496667,11.6444454 C17.2049608,11.3372612 18.1881176,11.2507921 19.1714877,11.3873932 L24.7216471,12.1585498 C24.7428284,12.1614938 24.7637966,12.1629237 24.7845515,12.1629237 C25.0511667,12.1629237 25.2814608,11.9266477 25.3133039,11.6055847 C25.3475637,11.25954 25.1383799,10.9461314 24.8460343,10.9055044 L19.2958039,10.1343477 C18.1764608,9.97898924 17.0576152,10.0773184 15.9701863,10.4269801 C15.6860147,10.5183279 15.5183407,10.8649614 15.5955319,11.2011649 C15.672723,11.5373683 15.9658505,11.7358772 16.2496667,11.6444454 L16.2496667,11.6444454 Z" id="Shape"></path>
                            <path d="M4.17329902,12.163967 C4.19405392,12.163967 4.21509314,12.1625362 4.23620343,12.1595905 L9.7858652,11.3880589 C10.7667475,11.252639 11.762201,11.3410112 12.7078284,11.6460216 C12.9917868,11.7375079 13.2849142,11.5393016 13.3622475,11.2028139 C13.439652,10.8664103 13.272049,10.5194862 12.9879485,10.4279157 C11.9114657,10.0807392 10.7793995,9.97991065 9.66190441,10.1341833 L4.1117451,10.9057991 C3.81939951,10.9464503 3.61014461,11.2600454 3.64447549,11.6062962 C3.67638971,11.9275503 3.90668382,12.163967 4.17329902,12.163967 L4.17329902,12.163967 Z" id="Shape"></path>
                            <path d="M24.8461054,13.3215192 L19.295875,12.5504011 C18.1763186,12.3949663 17.057473,12.4934588 15.9702574,12.8430189 C15.6860858,12.9343621 15.5184118,13.2809783 15.5956029,13.617165 C15.6727941,13.9534357 15.9659216,14.1519347 16.2497377,14.0605075 C17.205174,13.7534228 18.188473,13.6670421 19.1715588,13.8034681 L24.7217181,14.5745862 C24.7428995,14.5775301 24.7638676,14.5789599 24.7846225,14.5789599 C25.0512377,14.5789599 25.2815319,14.3426957 25.313375,14.0216487 C25.3476348,13.6756213 25.138451,13.3621442 24.8461054,13.3215192 L24.8461054,13.3215192 Z" id="Shape"></path>
                            <path d="M4.17329902,14.5800908 C4.19405392,14.5800908 4.21509314,14.57866 4.23620343,14.5757142 L9.7858652,13.8041826 C10.7670319,13.6688469 11.7623431,13.7572191 12.7078284,14.0621454 C12.9917868,14.1537158 13.2849142,13.9554254 13.3622475,13.6189376 C13.439652,13.282534 13.272049,12.9356099 12.9879485,12.8440395 C11.9113946,12.4968629 10.7796127,12.3960344 9.66190441,12.5503071 L4.1117451,13.3219228 C3.81939951,13.362574 3.61014461,13.6761692 3.64447549,14.02242 C3.67638971,14.343674 3.90668382,14.5800908 4.17329902,14.5800908 L4.17329902,14.5800908 Z" id="Shape"></path>
                        </g>
                    </g>
                </g>
            </g>
        </g>
    </g>
</svg>