<?xml version="1.0" encoding="UTF-8" standalone="no"?>
<svg width="32px" height="23px" viewBox="0 0 32 23" version="1.1" xmlns="http://www.w3.org/2000/svg" xmlns:xlink="http://www.w3.org/1999/xlink">
    <!-- Generator: Sketch 39.1 (31720) - http://www.bohemiancoding.com/sketch -->
    <title>bread</title>
    <desc>Created with Sketch.</desc>
    <defs>
        <polygon id="path-1" points="0.0416115101 0 31.9021577 0 31.9021577 22.9424668 0.0416115101 22.9424668"></polygon>
    </defs>
    <g id="Welcome" stroke="none" stroke-width="1" fill="none" fill-rule="evenodd">
        <g id="Facilities" transform="translate(-184.000000, -779.000000)">
            <g id="ICONS" transform="translate(184.000000, 729.000000)">
                <g id="bread" transform="translate(0.000000, 50.000000)">
                    <g id="Group-3">
                        <mask id="mask-2" fill="white">
                            <use xlink:href="#path-1"></use>
                        </mask>
                        <g id="Clip-2"></g>
                        <path d="M26.6299794,0.000695226268 L4.99268769,0.000695226268 C2.24008629,0.000695226268 0,2.24627607 0,5.00562913 L0,8.34341044 C0,9.67963533 0.525692078,10.9366044 1.47928918,11.8869787 C1.9481122,12.3541708 2.21858701,13.0549589 2.21858701,13.8071937 L2.21858701,17.7831927 C2.21858701,20.2463794 4.21802007,22.2479358 6.67240564,22.2479358 L25.4357291,22.2479358 C27.6244945,22.2479358 29.4040801,20.46329 29.4040801,18.2691559 L29.4040801,13.9323344 C29.4040801,13.1175292 29.70507,12.3541708 30.2467132,11.7840852 C31.1358124,10.8497011 31.6261347,9.62749335 31.6261347,8.34341044 L31.6261347,5.00562913 C31.6261347,2.24627607 29.3853549,0.000695226268 26.6299794,0.000695226268 L26.6299794,0.000695226268 Z M25.4218586,1.11375248 C25.4572283,1.11375248 25.4815017,1.1220952 25.489824,1.13043791 C26.0966586,1.67340963 26.2291219,2.40687334 25.8906816,3.37323785 C25.8823593,3.39270419 25.8664082,3.46292204 25.7741694,3.44971274 C25.6847046,3.44693184 25.6687535,3.38436147 25.6632053,3.36559036 C25.4683248,2.65924047 25.1291909,1.96679511 24.6527392,1.30146357 C24.6256917,1.26322613 24.6229176,1.2201221 24.6444169,1.17910375 C24.6582874,1.14920902 24.690883,1.11375248 24.7526068,1.11375248 L25.4218586,1.11375248 Z M20.2100169,1.11375248 C20.2474673,1.11375248 20.2717407,1.1220952 20.2772889,1.13043791 C20.8868975,1.67340963 21.0172802,2.40687334 20.6781464,3.37323785 C20.6732917,3.39270419 20.6621953,3.46292204 20.5644083,3.44971274 C20.4749435,3.44693184 20.4562184,3.38436147 20.4506702,3.36559036 C20.2585637,2.65924047 19.9173493,1.96679511 19.4429781,1.30146357 C19.4131565,1.26322613 19.4103824,1.2201221 19.4325752,1.17910375 C19.4485263,1.14920902 19.4783479,1.11375248 19.5407651,1.11375248 L20.2100169,1.11375248 Z M6.67240564,21.1341833 C4.8304028,21.1341833 3.32961433,19.6324946 3.32961433,17.7831927 L3.32961433,13.8071937 C3.32961433,12.7615734 2.93915966,11.7729616 2.259505,11.0972017 C1.51743307,10.3581762 1.11102732,9.38068803 1.11102732,8.34341044 L1.11102732,5.00562913 C1.11102732,2.86016087 2.85246902,1.11375248 4.99268769,1.11375248 L13.1825264,1.11375248 C14.7859566,1.11375248 16.0890904,2.42008264 16.0890904,4.02536009 L16.0890904,8.34341044 C16.0890904,9.38068803 15.6799105,10.3581762 14.9406127,11.0972017 C14.2498616,11.7813043 13.8705034,12.6531181 13.8705034,13.5464838 L13.8705034,18.1092538 C13.8705034,19.7764064 12.5160487,21.1341833 10.8502013,21.1341833 L6.67240564,21.1341833 Z M30.5151074,8.34341044 C30.5151074,9.33966968 30.132975,10.2907392 29.442224,11.0179459 C28.7029261,11.7952089 28.2965204,12.8297055 28.2965204,13.9323344 L28.2965204,18.2691559 C28.2965204,19.8501004 27.0121118,21.1341833 25.4357291,21.1341833 L13.6589782,21.1341833 C14.4690156,20.3791676 14.9815307,19.3036525 14.9815307,18.1092538 L14.9815307,13.5464838 C14.9815307,12.9520654 15.2436832,12.3625135 15.7208285,11.8869787 C16.6744256,10.9366044 17.2001177,9.67963533 17.2001177,8.34341044 L17.2001177,4.02536009 C17.2001177,2.87893197 16.7174242,1.84721619 15.9483048,1.11375248 L18.3270961,1.11375248 C18.2972745,1.40435706 18.3624659,1.70052345 18.5407018,1.95010968 C18.9415594,2.50698592 19.2238241,3.08263327 19.3833349,3.66106153 C19.5268946,4.18248123 19.9873953,4.54399889 20.5269579,4.56276999 L20.5727306,4.56276999 C21.1011968,4.56276999 21.5533752,4.24505159 21.7267565,3.74309823 C22.0762932,2.74336285 22.0464716,1.852778 21.6539363,1.11097158 L23.5368572,1.11097158 C23.5091162,1.40435706 23.5743075,1.70052345 23.753237,1.95010968 C24.1513205,2.50698592 24.4356658,3.08263327 24.5958701,3.66106153 C24.7394298,4.18804304 25.1888341,4.54399889 25.7387996,4.55998909 C25.7526701,4.56276999 25.7686212,4.56276999 25.7852658,4.56276999 C26.3130384,4.56276999 26.7631362,4.24505159 26.9392916,3.74031732 C27.2860542,2.74614376 27.2562326,1.86112072 26.8713262,1.1248761 C28.9005808,1.25001683 30.5151074,2.94150234 30.5151074,5.00562913 L30.5151074,8.34341044 Z" id="Fill-1" fill="#DD4B85" mask="url(#mask-2)"></path>
                    </g>
                    <path d="M26.0779334,11.6811917 L21.0817781,11.6811917 C20.7759335,11.6811917 20.529732,11.9279971 20.529732,12.2373728 C20.529732,12.5446628 20.7759335,12.7914681 21.0817781,12.7914681 L26.0779334,12.7914681 C26.383778,12.7914681 26.6299794,12.5446628 26.6299794,12.2373728 C26.6299794,11.9279971 26.383778,11.6811917 26.0779334,11.6811917 L26.0779334,11.6811917 Z" id="Fill-4" fill="#DD4B85"></path>
                    <path d="M18.8631911,11.6811917 L17.7556314,11.6811917 C17.4490932,11.6811917 17.2001177,11.9279971 17.2001177,12.2373728 C17.2001177,12.5446628 17.4490932,12.7914681 17.7556314,12.7914681 L18.8631911,12.7914681 C19.1697292,12.7914681 19.4187047,12.5446628 19.4187047,12.2373728 C19.4187047,11.9279971 19.1697292,11.6811917 18.8631911,11.6811917 L18.8631911,11.6811917 Z" id="Fill-5" fill="#DD4B85"></path>
                    <path d="M6.21745313,15.1322949 L7.04898981,14.2987186 C7.26606319,14.0818081 7.26606319,13.7286331 7.04898981,13.5110273 C6.83260996,13.2941167 6.48307327,13.2941167 6.26599989,13.5110273 L5.43446322,14.3452988 C5.21738984,14.5622094 5.21738984,14.9153843 5.43446322,15.1322949 C5.54265314,15.2414455 5.68343875,15.2956731 5.82422436,15.2956731 C5.96778407,15.2956731 6.10926321,15.2414455 6.21745313,15.1322949 L6.21745313,15.1322949 Z" id="Fill-6" fill="#DD4B85"></path>
                    <path d="M10.3161869,11.3412261 C10.48402,11.3412261 10.649079,11.2682273 10.7579624,11.1243155 C10.9417466,10.8795959 10.8959739,10.5292018 10.6518531,10.3449669 L9.71490056,9.62749335 C9.4707797,9.44325839 9.12401711,9.48914333 8.94023294,9.73386297 C8.75298115,9.97788739 8.79944733,10.3282814 9.04287467,10.5132116 L9.9805207,11.2299899 C10.0803883,11.3064648 10.1996746,11.3412261 10.3161869,11.3412261 L10.3161869,11.3412261 Z" id="Fill-7" fill="#DD4B85"></path>
                    <path d="M6.61276248,17.753298 C6.36933514,17.5655869 6.01979846,17.6149479 5.83532077,17.8589724 C5.6487625,18.103692 5.69730926,18.4513051 5.94073659,18.638321 L6.87560852,19.3530136 C6.97616967,19.4287933 7.09476247,19.4670307 7.2112747,19.4670307 C7.37980132,19.4670307 7.54486031,19.3905558 7.65305023,19.246644 C7.84030203,19.0026196 7.79106174,18.6550064 7.55040851,18.4672953 L6.61276248,17.753298 Z" id="Fill-8" fill="#DD4B85"></path>
                    <path d="M11.7247365,16.161925 C11.6352717,15.8657587 11.326653,15.7030757 11.0339854,15.7871981 L9.90423293,16.1209067 C9.61156531,16.2105909 9.44373222,16.5206618 9.53319696,16.8133521 C9.60393653,17.0552908 9.82586458,17.2131072 10.0644372,17.2131072 C10.1157581,17.2131072 10.1698531,17.2047644 10.2211739,17.188079 L11.3509264,16.8515895 C11.643594,16.7646862 11.8114271,16.4553105 11.7247365,16.161925 L11.7247365,16.161925 Z" id="Fill-9" fill="#DD4B85"></path>
                    <path d="M3.90385317,5.12242714 L4.73538985,4.28606994 C4.95246323,4.06846412 4.95246323,3.71807008 4.73538985,3.50115948 C4.51901,3.28355366 4.16669921,3.28355366 3.94962583,3.50115948 L3.11808916,4.33473578 C2.9017093,4.5523416 2.9017093,4.90482132 3.11808916,5.12242714 C3.22627908,5.23088244 3.36706469,5.28511009 3.5106244,5.28511009 C3.65210354,5.28511009 3.79566325,5.23088244 3.90385317,5.12242714 L3.90385317,5.12242714 Z" id="Fill-10" fill="#DD4B85"></path>
                    <path d="M5.23403444,8.45742755 L4.29638842,7.74343017 C4.05296108,7.55571908 3.7061985,7.60438492 3.5189467,7.84910456 C3.33516253,8.0910433 3.3809352,8.44074212 3.62505605,8.6256723 L4.56200856,9.34245059 C4.66256971,9.41892547 4.77908193,9.45646769 4.89767474,9.45646769 C5.06342725,9.45646769 5.22848624,9.38068803 5.33945027,9.23677619 C5.52392796,8.99205655 5.47746178,8.64166251 5.23403444,8.45742755 L5.23403444,8.45742755 Z" id="Fill-11" fill="#DD4B85"></path>
                    <path d="M13.8815998,9.12275908 C13.9114213,9.12275908 13.9433235,9.11997818 13.9731451,9.11441637 C14.2769091,9.06575053 14.480112,8.77792686 14.4287911,8.47619866 L14.233217,7.31099943 C14.1818962,7.00718555 13.8975508,6.80626516 13.5944803,6.854931 C13.2907163,6.90637774 13.0875134,7.19420142 13.1388343,7.49592962 L13.3344084,8.66112884 C13.3801811,8.93226709 13.6159796,9.12275908 13.8815998,9.12275908 L13.8815998,9.12275908 Z" id="Fill-12" fill="#DD4B85"></path>
                    <path d="M9.40836243,6.14927634 C9.32167179,5.85589085 9.01305309,5.68973177 8.71761136,5.77385415 L7.59063297,6.11103889 C7.29796535,6.19794218 7.13013225,6.50731787 7.2168229,6.80348426 C7.28756247,7.045423 7.50949052,7.19976323 7.74806318,7.19976323 C7.79938404,7.19976323 7.853479,7.19211574 7.90757397,7.17821121 L9.03455237,6.8417217 C9.32999409,6.75481842 9.49505308,6.4447475 9.40836243,6.14927634 L9.40836243,6.14927634 Z" id="Fill-13" fill="#DD4B85"></path>
                    <path d="M10.8959739,4.41329635 L11.9931307,4.84016528 C12.0583221,4.8644982 12.125594,4.87770749 12.1935595,4.87770749 C12.4154876,4.87770749 12.6270127,4.74213837 12.7109293,4.52244687 C12.8218933,4.2346232 12.6811077,3.91412389 12.3939883,3.80288768 L11.2968315,3.37601876 C11.0124861,3.26478255 10.6899969,3.40591349 10.5790329,3.69095626 C10.4680689,3.97877993 10.6088545,4.30206014 10.8959739,4.41329635 L10.8959739,4.41329635 Z" id="Fill-14" fill="#DD4B85"></path>
                </g>
            </g>
        </g>
    </g>
</svg>