<?xml version="1.0" encoding="UTF-8" standalone="no"?>
<svg width="29px" height="26px" viewBox="0 0 29 26" version="1.1" xmlns="http://www.w3.org/2000/svg" xmlns:xlink="http://www.w3.org/1999/xlink">
    <!-- Generator: Sketch 39.1 (31720) - http://www.bohemiancoding.com/sketch -->
    <title>chef</title>
    <desc>Created with Sketch.</desc>
    <defs>
        <polygon id="path-1" points="0.20417381 0 30.6260714 0 30.6260714 30.5899558 0.20417381 30.5899558"></polygon>
    </defs>
    <g id="Welcome" stroke="none" stroke-width="1" fill="none" fill-rule="evenodd">
        <g id="Facilities" transform="translate(-400.000000, -825.000000)">
            <g id="ICONS" transform="translate(184.000000, 729.000000)">
                <g id="chef" transform="translate(216.000000, 94.000000)">
                    <mask id="mask-2" fill="white">
                        <use xlink:href="#path-1"></use>
                    </mask>
                    <g id="Clip-2"></g>
                    <path d="M23.1941448,2.39281432 C21.4008181,2.39281432 19.8184711,3.24253531 18.7941992,4.57149895 C17.7869417,3.24253531 16.1909831,2.39281432 14.3942536,2.39281432 C12.5873154,2.39281432 10.9913567,3.25613085 9.9704877,4.59529113 C8.95982734,3.25613085 7.36386873,2.39281432 5.55693052,2.39281432 C2.48411468,2.39281432 0,4.87399962 0,7.94319185 C0,10.6656979 1.98048595,12.9361524 4.57349333,13.3984006 L4.57349333,26.541885 C4.57349333,26.9021667 4.86614246,27.1944707 5.22344663,27.1944707 L23.5276287,27.1944707 C23.8883357,27.1944707 24.1775819,26.9021667 24.1775819,26.541885 L24.1775819,13.3984006 C26.7705893,12.9361524 28.7510753,10.6656979 28.7510753,7.94319185 C28.7510753,4.87399962 26.2669606,2.39281432 23.1941448,2.39281432 L23.1941448,2.39281432 Z M5.87680282,22.6263706 L22.8640638,22.6263706 L22.8640638,25.8791026 L5.87680282,25.8791026 L5.87680282,22.6263706 Z M23.1941448,12.1782013 C23.088655,12.1782013 22.9831652,12.1510102 22.8776754,12.1510102 L22.8776754,21.3110025 L5.87680282,21.3110025 L5.87680282,12.1510102 C5.76791012,12.1646057 5.66242032,12.1782013 5.55693052,12.1782013 C3.20212591,12.1782013 1.30330948,10.2782251 1.30330948,7.94319185 C1.30330948,5.59116414 3.20212591,3.69458688 5.55693052,3.69458688 C7.78923083,3.69458688 9.59616905,5.43481548 9.76971679,7.61010122 L10.1814673,7.61010122 C10.355015,5.43481548 12.1619533,3.69458688 14.3942536,3.69458688 C16.6299568,3.69458688 18.436895,5.43481548 18.6104427,7.61010122 L18.9813585,7.61010122 C19.1549062,5.43481548 20.9618444,3.69458688 23.1941448,3.69458688 C25.5353378,3.69458688 27.4477658,5.59116414 27.4477658,7.94319185 C27.4341542,10.2782251 25.5353378,12.1782013 23.1941448,12.1782013 L23.1941448,12.1782013 Z" id="Fill-1" fill="#DD4B85" mask="url(#mask-2)"></path>
                </g>
            </g>
        </g>
    </g>
</svg>