<?xml version="1.0" encoding="UTF-8" standalone="no"?>
<svg width="26px" height="29px" viewBox="0 0 26 29" version="1.1" xmlns="http://www.w3.org/2000/svg" xmlns:xlink="http://www.w3.org/1999/xlink">
    <!-- Generator: Sketch 39.1 (31720) - http://www.bohemiancoding.com/sketch -->
    <title>credit-card-accepted</title>
    <desc>Created with Sketch.</desc>
    <defs></defs>
    <g id="Welcome" stroke="none" stroke-width="1" fill="none" fill-rule="evenodd">
        <g id="Facilities" transform="translate(-1043.000000, -732.000000)" fill="#DC4B85">
            <g id="ICONS" transform="translate(184.000000, 729.000000)">
                <g id="credit-card-accepted" transform="translate(859.000000, 3.000000)">
                    <g id="Capa_1">
                        <g id="Group">
                            <path d="M24.4573333,3.86666667 L23.1111111,3.86666667 L20.2222222,3.86666667 L19.2592593,3.86666667 L19.2592593,2.77095 C19.2592593,1.24313333 18.0208889,0 16.4989259,0 L2.76033333,0 C1.23837037,0 0,1.24313333 0,2.77095 L0,26.2285667 C0,27.7568667 1.23837037,29 2.76033333,29 L16.4989259,29 C18.0208889,29 19.2592593,27.7568667 19.2592593,26.22905 L19.2592593,20.3 L20.2222222,20.3 L23.1111111,20.3 L24.4573333,20.3 C25.3081111,20.3 26,19.60545 26,18.7518833 L26,5.41478333 C26,4.56121667 25.3081111,3.86666667 24.4573333,3.86666667 L24.4573333,3.86666667 Z M18.2962963,26.22905 C18.2962963,27.22375 17.4898148,28.0333333 16.4989259,28.0333333 L2.76033333,28.0333333 C1.76944444,28.0333333 0.962962963,27.22375 0.962962963,26.22905 L0.962962963,2.77095 C0.962962963,1.77625 1.76944444,0.966666667 2.76033333,0.966666667 L16.4989259,0.966666667 C17.4898148,0.966666667 18.2962963,1.77625 18.2962963,2.77095 L18.2962963,3.86666667 L18.2962963,20.3 L18.2962963,26.22905 L18.2962963,26.22905 Z M19.2592593,19.3333333 L19.2592593,4.83333333 L20.2222222,4.83333333 L20.2222222,19.3333333 L19.2592593,19.3333333 L19.2592593,19.3333333 Z M21.1851852,19.3333333 L21.1851852,4.83333333 L22.1481481,4.83333333 L22.1481481,19.3333333 L21.1851852,19.3333333 L21.1851852,19.3333333 Z M25.037037,18.7518833 C25.037037,19.0723333 24.777037,19.3333333 24.4573333,19.3333333 L23.1111111,19.3333333 L23.1111111,4.83333333 L24.4573333,4.83333333 C24.777037,4.83333333 25.037037,5.09433333 25.037037,5.41478333 L25.037037,18.7518833 L25.037037,18.7518833 Z" id="Shape"></path>
                            <ellipse id="Oval" cx="24.0740741" cy="6.76666667" rx="0.481481481" ry="0.483333333"></ellipse>
                            <ellipse id="Oval" cx="24.0740741" cy="9.18333333" rx="0.481481481" ry="0.483333333"></ellipse>
                            <path d="M2.40740741,10.6333333 L16.8518519,10.6333333 L16.8518519,4.35 L2.40740741,4.35 L2.40740741,10.6333333 L2.40740741,10.6333333 Z M3.37037037,5.31666667 L15.8888889,5.31666667 L15.8888889,9.66666667 L3.37037037,9.66666667 L3.37037037,5.31666667 L3.37037037,5.31666667 Z" id="Shape"></path>
                            <path d="M5.2962963,3.38333333 C5.56207407,3.38333333 5.77777778,3.16728333 5.77777778,2.9 C5.77777778,2.63271667 5.56207407,2.41666667 5.2962963,2.41666667 L2.40740741,2.41666667 C2.14162963,2.41666667 1.92592593,2.63271667 1.92592593,2.9 C1.92592593,3.16728333 2.14162963,3.38333333 2.40740741,3.38333333 L5.2962963,3.38333333 L5.2962963,3.38333333 Z" id="Shape"></path>
                            <path d="M2.88888889,14.9833333 L6.74074074,14.9833333 L6.74074074,11.6 L2.88888889,11.6 L2.88888889,14.9833333 L2.88888889,14.9833333 Z M3.85185185,12.5666667 L5.77777778,12.5666667 L5.77777778,14.0166667 L3.85185185,14.0166667 L3.85185185,12.5666667 L3.85185185,12.5666667 Z" id="Shape"></path>
                            <path d="M7.7037037,14.9833333 L11.5555556,14.9833333 L11.5555556,11.6 L7.7037037,11.6 L7.7037037,14.9833333 L7.7037037,14.9833333 Z M8.66666667,12.5666667 L10.5925926,12.5666667 L10.5925926,14.0166667 L8.66666667,14.0166667 L8.66666667,12.5666667 L8.66666667,12.5666667 Z" id="Shape"></path>
                            <path d="M12.5185185,14.9833333 L16.3703704,14.9833333 L16.3703704,11.6 L12.5185185,11.6 L12.5185185,14.9833333 L12.5185185,14.9833333 Z M13.4814815,12.5666667 L15.4074074,12.5666667 L15.4074074,14.0166667 L13.4814815,14.0166667 L13.4814815,12.5666667 L13.4814815,12.5666667 Z" id="Shape"></path>
                            <path d="M2.88888889,18.85 L6.74074074,18.85 L6.74074074,15.4666667 L2.88888889,15.4666667 L2.88888889,18.85 L2.88888889,18.85 Z M3.85185185,16.4333333 L5.77777778,16.4333333 L5.77777778,17.8833333 L3.85185185,17.8833333 L3.85185185,16.4333333 L3.85185185,16.4333333 Z" id="Shape"></path>
                            <path d="M7.7037037,18.85 L11.5555556,18.85 L11.5555556,15.4666667 L7.7037037,15.4666667 L7.7037037,18.85 L7.7037037,18.85 Z M8.66666667,16.4333333 L10.5925926,16.4333333 L10.5925926,17.8833333 L8.66666667,17.8833333 L8.66666667,16.4333333 L8.66666667,16.4333333 Z" id="Shape"></path>
                            <path d="M12.5185185,18.85 L16.3703704,18.85 L16.3703704,15.4666667 L12.5185185,15.4666667 L12.5185185,18.85 L12.5185185,18.85 Z M13.4814815,16.4333333 L15.4074074,16.4333333 L15.4074074,17.8833333 L13.4814815,17.8833333 L13.4814815,16.4333333 L13.4814815,16.4333333 Z" id="Shape"></path>
                            <path d="M2.88888889,22.7166667 L6.74074074,22.7166667 L6.74074074,19.3333333 L2.88888889,19.3333333 L2.88888889,22.7166667 L2.88888889,22.7166667 Z M3.85185185,20.3 L5.77777778,20.3 L5.77777778,21.75 L3.85185185,21.75 L3.85185185,20.3 L3.85185185,20.3 Z" id="Shape"></path>
                            <path d="M7.7037037,22.7166667 L11.5555556,22.7166667 L11.5555556,19.3333333 L7.7037037,19.3333333 L7.7037037,22.7166667 L7.7037037,22.7166667 Z M8.66666667,20.3 L10.5925926,20.3 L10.5925926,21.75 L8.66666667,21.75 L8.66666667,20.3 L8.66666667,20.3 Z" id="Shape"></path>
                            <path d="M2.88888889,27.0666667 L6.74074074,27.0666667 L6.74074074,23.6833333 L2.88888889,23.6833333 L2.88888889,27.0666667 L2.88888889,27.0666667 Z M3.85185185,24.65 L5.77777778,24.65 L5.77777778,26.1 L3.85185185,26.1 L3.85185185,24.65 L3.85185185,24.65 Z" id="Shape"></path>
                            <path d="M7.7037037,27.0666667 L11.5555556,27.0666667 L11.5555556,23.6833333 L7.7037037,23.6833333 L7.7037037,27.0666667 L7.7037037,27.0666667 Z M8.66666667,24.65 L10.5925926,24.65 L10.5925926,26.1 L8.66666667,26.1 L8.66666667,24.65 L8.66666667,24.65 Z" id="Shape"></path>
                            <path d="M12.5185185,27.0666667 L16.3703704,27.0666667 L16.3703704,19.3333333 L12.5185185,19.3333333 L12.5185185,27.0666667 L12.5185185,27.0666667 Z M13.4814815,20.3 L15.4074074,20.3 L15.4074074,26.1 L13.4814815,26.1 L13.4814815,20.3 L13.4814815,20.3 Z" id="Shape"></path>
                            <path d="M8.36911111,5.83721667 C8.25162963,5.7884 8.11874074,5.7884 8.00125926,5.83721667 C7.94203704,5.86186667 7.88907407,5.89715 7.8442963,5.9421 L7.3632963,6.42495 C7.17503704,6.61393333 7.17503704,6.9194 7.3632963,7.10838333 C7.45718519,7.20263333 7.58044444,7.25 7.7037037,7.25 L7.7037037,8.7 C7.7037037,8.96728333 7.91940741,9.18333333 8.18518519,9.18333333 C8.45096296,9.18333333 8.66666667,8.96728333 8.66666667,8.7 L8.66666667,6.28333333 C8.66666667,6.2205 8.65366667,6.15766667 8.62959259,6.0987 C8.58096296,5.98028333 8.48707407,5.88603333 8.36911111,5.83721667 L8.36911111,5.83721667 Z" id="Shape"></path>
                            <path d="M12.7024444,5.83721667 C12.584963,5.7884 12.4520741,5.7884 12.3345926,5.83721667 C12.2753704,5.86186667 12.2224074,5.89715 12.1776296,5.9421 L11.6966296,6.42495 C11.5083704,6.61393333 11.5083704,6.9194 11.6966296,7.10838333 C11.7905185,7.20263333 11.9137778,7.25 12.037037,7.25 L12.037037,8.7 C12.037037,8.96728333 12.2527407,9.18333333 12.5185185,9.18333333 C12.7842963,9.18333333 13,8.96728333 13,8.7 L13,6.28333333 C13,6.2205 12.987,6.15766667 12.9629259,6.0987 C12.9142963,5.98028333 12.8204074,5.88603333 12.7024444,5.83721667 L12.7024444,5.83721667 Z" id="Shape"></path>
                            <path d="M14.6283704,5.83721667 C14.5108889,5.7884 14.378,5.7884 14.2605185,5.83721667 C14.2012963,5.86186667 14.1483333,5.89715 14.1035556,5.9421 L13.6225556,6.42495 C13.4342963,6.61393333 13.4342963,6.9194 13.6225556,7.10838333 C13.7164444,7.20263333 13.8397037,7.25 13.962963,7.25 L13.962963,8.7 C13.962963,8.96728333 14.1786667,9.18333333 14.4444444,9.18333333 C14.7102222,9.18333333 14.9259259,8.96728333 14.9259259,8.7 L14.9259259,6.28333333 C14.9259259,6.2205 14.9129259,6.15766667 14.8888519,6.0987 C14.8402222,5.98028333 14.7463333,5.88603333 14.6283704,5.83721667 L14.6283704,5.83721667 Z" id="Shape"></path>
                            <path d="M10.2521852,7.87495 L9.7707037,8.35828333 C9.58244444,8.54726667 9.58244444,8.85273333 9.7707037,9.04171667 C9.86459259,9.13596667 9.98785185,9.18333333 10.1111111,9.18333333 C10.2343704,9.18333333 10.3576296,9.13596667 10.4515185,9.04171667 L10.933,8.55838333 C11.1212593,8.3694 11.1212593,8.06393333 10.933,7.87495 C10.7447407,7.68596667 10.4404444,7.68596667 10.2521852,7.87495 L10.2521852,7.87495 Z" id="Shape"></path>
                        </g>
                    </g>
                </g>
            </g>
        </g>
    </g>
</svg>