<?xml version="1.0" encoding="UTF-8" standalone="no"?>
<svg width="28px" height="27px" viewBox="0 0 28 27" version="1.1" xmlns="http://www.w3.org/2000/svg" xmlns:xlink="http://www.w3.org/1999/xlink">
    <!-- Generator: Sketch 39.1 (31720) - http://www.bohemiancoding.com/sketch -->
    <title>free-maps</title>
    <desc>Created with Sketch.</desc>
    <defs></defs>
    <g id="Welcome" stroke="none" stroke-width="1" fill="none" fill-rule="evenodd">
        <g id="Facilities" transform="translate(-1043.000000, -826.000000)" fill="#DC4B85">
            <g id="ICONS" transform="translate(184.000000, 729.000000)">
                <g id="free-maps" transform="translate(859.000000, 97.000000)">
                    <g id="Capa_1">
                        <g id="Group">
                            <path d="M27.749037,0.07425 C27.5934815,-0.02025 27.3995556,-0.0244038462 27.2393333,0.0602307692 L18.6666667,4.60505769 L10.0945185,0.0602307692 C10.0877778,0.0565961538 10.08,0.0555576923 10.0732593,0.0524423077 C10.0483704,0.0405 10.022963,0.0316730769 9.99703704,0.0238846154 C9.98251852,0.0197307692 9.96851852,0.0150576923 9.954,0.0119423077 C9.92548148,0.00623076923 9.89644444,0.00415384615 9.86688889,0.00311538462 C9.85392593,0.00259615385 9.84096296,0.00103846154 9.82748148,0.00155769231 C9.79948148,0.00311538462 9.772,0.00830769231 9.74451852,0.0145384615 C9.72896296,0.0176538462 9.71340741,0.0197307692 9.69837037,0.0244038462 C9.69474074,0.0254423077 9.69111111,0.0254423077 9.688,0.0264807692 L0.354666667,3.14186538 C0.142592593,3.21248077 0,3.41082692 0,3.63461538 L0,25.9615385 C0,26.1282115 0.0798518519,26.2850192 0.215703704,26.3831538 C0.304888889,26.4470192 0.411185185,26.4807692 0.518518519,26.4807692 C0.573481481,26.4807692 0.628962963,26.4719423 0.68237037,26.4537692 L9.83214815,23.3996538 L18.4691111,26.9610577 C18.4763704,26.9641731 18.4846667,26.9631346 18.4919259,26.9657308 C18.548963,26.9859808 18.607037,27 18.6666667,27 C18.7133333,27 18.7594815,26.9922115 18.8045926,26.97975 C18.8191111,26.9755962 18.8325926,26.9688462 18.8471111,26.9636538 C18.8678519,26.9558654 18.8896296,26.9501538 18.9093333,26.9397692 L27.7241481,22.2666923 C27.8937037,22.1768654 28,21.9998077 28,21.8076923 L28,0.519230769 C28,0.336980769 27.9045926,0.168230769 27.749037,0.07425 L27.749037,0.07425 Z M1.03703704,4.00898077 L9.33333333,1.23992308 L9.33333333,15.255 C9.11037037,15.2955 8.89051852,15.3411923 8.67792593,15.3972692 C8.40103704,15.471 8.23614815,15.7550192 8.30977778,16.0322885 C8.37148148,16.2649038 8.58096296,16.4185962 8.81066667,16.4185962 C8.85422222,16.4185962 8.89933333,16.4128846 8.94392593,16.4014615 C9.06837037,16.3682308 9.20422222,16.3516154 9.33333333,16.3246154 L9.33333333,22.4723077 L1.03703704,25.2408462 L1.03703704,4.00898077 L1.03703704,4.00898077 Z M10.3703704,16.1792308 C10.5368148,16.16625 10.6980741,16.1449615 10.8686667,16.1413269 C11.1548889,16.1350962 11.382,15.8978077 11.3762963,15.6111923 C11.3700741,15.3282115 11.1393333,15.1028654 10.8577778,15.1028654 L10.8463704,15.1028654 C10.6856296,15.1065 10.5274815,15.1153269 10.3703704,15.1262308 L10.3703704,1.38167308 L18.1481481,5.50488462 L18.1481481,16.5094615 C17.7779259,16.4933654 17.4014815,16.44975 17.0068889,16.3734231 C16.7248148,16.3178654 16.4536296,16.5027115 16.3991852,16.7841346 C16.3447407,17.0655577 16.5288148,17.3381538 16.8098519,17.3926731 C17.2692593,17.4819808 17.7151852,17.5255962 18.1486667,17.5427308 L18.1486667,25.7055577 L10.3703704,22.4982692 L10.3703704,16.1792308 L10.3703704,16.1792308 Z M26.962963,21.4945962 L19.1851852,25.6178077 L19.1851852,17.4866538 C19.3780741,17.3989038 19.5066667,17.2015962 19.4895556,16.9778077 C19.4745185,16.7836154 19.3500741,16.6278462 19.1851852,16.5515192 L19.1851852,5.50488462 L26.962963,1.38167308 L26.962963,21.4945962 L26.962963,21.4945962 Z" id="Shape"></path>
                            <path d="M5.7037037,4.15384615 C4.27414815,4.15384615 3.11111111,5.31848077 3.11111111,6.75 C3.11111111,8.00394231 4.00348148,9.05226923 5.18518519,9.29371154 L5.18518519,10.3846154 C5.18518519,10.67175 5.41748148,10.9038462 5.7037037,10.9038462 C5.98992593,10.9038462 6.22222222,10.67175 6.22222222,10.3846154 L6.22222222,9.29371154 C7.40392593,9.05226923 8.2962963,8.00394231 8.2962963,6.75 C8.2962963,5.31848077 7.13325926,4.15384615 5.7037037,4.15384615 L5.7037037,4.15384615 Z M5.7037037,8.30769231 C4.84607407,8.30769231 4.14814815,7.60880769 4.14814815,6.75 C4.14814815,5.89119231 4.84607407,5.19230769 5.7037037,5.19230769 C6.56133333,5.19230769 7.25925926,5.89119231 7.25925926,6.75 C7.25925926,7.60880769 6.56133333,8.30769231 5.7037037,8.30769231 L5.7037037,8.30769231 Z" id="Shape"></path>
                            <path d="M23.3696296,13.8494423 C23.4318519,13.8738462 23.4956296,13.88475 23.5583704,13.88475 C23.7657778,13.88475 23.9612593,13.7596154 24.0416296,13.5545192 C24.2853333,12.9319615 24.4808148,12.2289231 24.6239259,11.4651346 C24.6768148,11.1837115 24.4911852,10.9126731 24.2096296,10.8591923 C23.9265185,10.8124615 23.6574074,10.9926346 23.6045185,11.2745769 C23.4738519,11.9745 23.296,12.6141923 23.0761481,13.1765192 C22.9719259,13.4428846 23.1031111,13.7445577 23.3696296,13.8494423 L23.3696296,13.8494423 Z" id="Shape"></path>
                            <path d="M6.63962963,16.2737308 C6.01377778,16.6667885 5.44962963,17.1590192 4.96222222,17.7379615 C4.77762963,17.9570769 4.80562963,18.2847115 5.02444444,18.4695577 C5.12192593,18.5515962 5.24066667,18.5915769 5.35837037,18.5915769 C5.50614815,18.5915769 5.65237037,18.52875 5.75503704,18.40725 C6.17296296,17.9108654 6.6557037,17.4887308 7.1902963,17.1538269 C7.43296296,17.0011731 7.50607407,16.6808077 7.35414815,16.4378077 C7.20222222,16.1948077 6.88177778,16.1210769 6.63962963,16.2737308 L6.63962963,16.2737308 Z" id="Shape"></path>
                            <path d="M4.47325926,19.3548462 C4.21296296,19.2354231 3.90496296,19.3480962 3.78518519,19.60875 C3.25318519,20.7645577 3.12148148,21.6976154 3.11577778,21.7370769 C3.07688889,22.0210962 3.27496296,22.2822692 3.55859259,22.3212115 C3.58244444,22.3248462 3.60681481,22.3264038 3.63014815,22.3264038 C3.88474074,22.3264038 4.10666667,22.1384423 4.14348148,21.8793462 C4.14451852,21.8710385 4.26325926,21.0501346 4.72681481,20.0443846 C4.84659259,19.7832115 4.73303704,19.4753077 4.47325926,19.3548462 L4.47325926,19.3548462 Z" id="Shape"></path>
                            <path d="M20.9600741,16.9939038 C21.0394074,16.9939038 21.1202963,16.9757308 21.1954815,16.9373077 C21.8654074,16.5940962 22.456,16.1070577 22.9501481,15.4907308 C23.1295556,15.2669423 23.0937778,14.9398269 22.8702963,14.7606923 C22.6473333,14.5825962 22.3206667,14.6173846 22.1412593,14.8406538 C21.7388889,15.34275 21.2618519,15.7368462 20.7231111,16.0125577 C20.468,16.1434038 20.3668889,16.4559808 20.4975556,16.7114423 C20.5898519,16.8905769 20.7718519,16.9939038 20.9600741,16.9939038 L20.9600741,16.9939038 Z" id="Shape"></path>
                            <path d="M15.1251852,15.8012308 C14.8965185,15.7051731 14.7627407,15.6387115 14.7539259,15.6340385 C14.7202222,15.6169038 14.6844444,15.6028846 14.6476296,15.5935385 C14.0860741,15.4491923 13.5328148,15.3349615 13.0023704,15.2539615 C12.7197778,15.2093077 12.4548148,15.4050577 12.4112593,15.6885577 C12.3682222,15.9720577 12.5626667,16.2373846 12.8457778,16.2804808 C13.3259259,16.3542115 13.8273333,16.4570192 14.3375556,16.5868269 C14.407037,16.6200577 14.5397778,16.6828846 14.7254074,16.76025 C14.7907407,16.7877692 14.8586667,16.8002308 14.925037,16.8002308 C15.1277778,16.8002308 15.3206667,16.6808077 15.4036296,16.4814231 C15.5140741,16.2155769 15.3896296,15.9113077 15.1251852,15.8012308 L15.1251852,15.8012308 Z" id="Shape"></path>
                            <path d="M24.3304444,9.82955769 C24.3418519,9.83007692 24.3527407,9.83059615 24.3641481,9.83059615 C24.6353333,9.83059615 24.8634815,9.61978846 24.8811111,9.34407692 C24.9132593,8.84509615 24.9293333,8.31703846 24.9293333,7.776 C24.9293333,7.59582692 24.9277778,7.41305769 24.9241481,7.22665385 C24.918963,6.93951923 24.6700741,6.72144231 24.3962963,6.71676923 C24.1100741,6.72196154 23.8819259,6.95873077 23.8871111,7.24534615 C23.8902222,7.42551923 23.8922963,7.60257692 23.8922963,7.776 C23.8922963,8.29523077 23.8767407,8.80044231 23.8461481,9.27813462 C23.828,9.56423077 24.0447407,9.81086538 24.3304444,9.82955769 L24.3304444,9.82955769 Z" id="Shape"></path>
                            <path d="M4.30007407,14.3863269 C4.40118519,14.4875769 4.53392593,14.5384615 4.66666667,14.5384615 C4.79940741,14.5384615 4.93214815,14.4875769 5.03325926,14.3863269 L5.7037037,13.7149615 L6.37414815,14.3863269 C6.47525926,14.4875769 6.608,14.5384615 6.74074074,14.5384615 C6.87348148,14.5384615 7.00622222,14.4875769 7.10733333,14.3863269 C7.31007407,14.1833077 7.31007407,13.8551538 7.10733333,13.6521346 L6.43688889,12.9807692 L7.10733333,12.3094038 C7.31007407,12.1063846 7.31007407,11.7782308 7.10733333,11.5752115 C6.90459259,11.3721923 6.57688889,11.3721923 6.37414815,11.5752115 L5.7037037,12.2465769 L5.03325926,11.5752115 C4.83051852,11.3721923 4.50281481,11.3721923 4.30007407,11.5752115 C4.09733333,11.7782308 4.09733333,12.1063846 4.30007407,12.3094038 L4.97051852,12.9807692 L4.30007407,13.6521346 C4.09733333,13.8546346 4.09733333,14.1833077 4.30007407,14.3863269 L4.30007407,14.3863269 Z" id="Shape"></path>
                        </g>
                    </g>
                </g>
            </g>
        </g>
    </g>
</svg>