<?xml version="1.0" encoding="UTF-8" standalone="no"?>
<svg width="35px" height="34px" viewBox="0 0 35 34" version="1.1" xmlns="http://www.w3.org/2000/svg" xmlns:xlink="http://www.w3.org/1999/xlink">
    <!-- Generator: Sketch 39.1 (31720) - http://www.bohemiancoding.com/sketch -->
    <title>hot-beverage</title>
    <desc>Created with Sketch.</desc>
    <defs></defs>
    <g id="Welcome" stroke="none" stroke-width="1" fill="none" fill-rule="evenodd">
        <g id="Facilities" transform="translate(-398.000000, -863.000000)" fill="#DC4B85">
            <g id="ICONS" transform="translate(184.000000, 729.000000)">
                <g id="hot-beverage" transform="translate(214.000000, 134.000000)">
                    <g id="Group">
                        <path d="M33.6820267,29.7736049 L2.36684512,29.7736049 C2.06512699,29.7736049 1.82065009,30.0163935 1.82065009,30.3160281 C1.82065009,30.6156626 2.06512699,30.8584512 2.36684512,30.8584512 L2.68305563,30.8584512 L2.99810092,31.953278 C3.22983326,32.7588125 4.07213882,33.3897591 4.91575525,33.3897591 L31.1331166,33.3897591 C31.976733,33.3897591 32.8190386,32.7587402 33.0508437,31.953278 L33.3658162,30.8584512 L33.6820267,30.8584512 C33.9837448,30.8584512 34.2282217,30.6156626 34.2282217,30.3160281 C34.2282217,30.0163935 33.9837448,29.7736049 33.6820267,29.7736049 L33.6820267,29.7736049 Z M32.0004743,31.6551623 C31.9025961,31.9951531 31.4891629,32.3048405 31.1331166,32.3048405 L4.91575525,32.3048405 C4.55963609,32.3048405 4.14627569,31.9951531 4.04847037,31.6551623 L3.81928694,30.8583789 L32.2297305,30.8583789 L32.0004743,31.6551623 L32.0004743,31.6551623 Z" id="Shape"></path>
                        <path d="M14.9292579,8.8830826 C14.9292579,9.18271713 15.1738076,9.42550571 15.475453,9.42550571 C15.7771711,9.42550571 16.021648,9.1826448 16.021648,8.8830826 C16.021648,8.32301264 16.1549924,8.06923095 16.3238031,7.74797182 C16.523492,7.3678417 16.749908,6.93701309 16.749908,6.11093885 C16.7498352,5.28479228 16.5235648,4.85389135 16.3238031,4.47376123 C16.1549924,4.15242978 16.021648,3.89857576 16.021648,3.33843348 C16.021648,2.77829121 16.1549924,2.52436487 16.3238031,2.20303341 C16.523492,1.82290329 16.749908,1.39200237 16.749908,0.56592812 C16.749908,0.266293589 16.5054311,0.0235050018 16.203713,0.0235050018 C15.9019949,0.0235050018 15.657518,0.266293589 15.657518,0.56592812 C15.657518,1.12599807 15.5241736,1.37985209 15.3553629,1.70118354 C15.155674,2.08138599 14.9291851,2.51228691 14.9292579,3.33843348 C14.9292579,4.16458005 15.1556011,4.59540866 15.3553629,4.9756111 C15.5241736,5.29694255 15.657518,5.55079657 15.657518,6.11093885 C15.657518,6.67093647 15.5241736,6.92471817 15.3553629,7.24604963 C15.1556011,7.62617975 14.9291851,8.05700835 14.9292579,8.8830826 L14.9292579,8.8830826 Z" id="Shape"></path>
                        <path d="M19.2988181,8.8830826 C19.2988181,9.18271713 19.5433679,9.42550571 19.8450132,9.42550571 C20.1467313,9.42550571 20.3912082,9.1826448 20.3912082,8.8830826 C20.3912082,8.32301264 20.5245526,8.06923095 20.6933633,7.74797182 C20.8930522,7.3678417 21.1194682,6.93701309 21.1194682,6.11093885 C21.1193954,5.28479228 20.893125,4.85389135 20.6933633,4.47376123 C20.5245526,4.15242978 20.3912082,3.89857576 20.3912082,3.33843348 C20.3912082,2.77829121 20.5245526,2.52436487 20.6933633,2.20303341 C20.8930522,1.82290329 21.1194682,1.39200237 21.1194682,0.56592812 C21.1194682,0.266293589 20.8749913,0.0235050018 20.5732732,0.0235050018 C20.2715551,0.0235050018 20.0270782,0.266293589 20.0270782,0.56592812 C20.0270782,1.12599807 19.8937338,1.37985209 19.7249231,1.70118354 C19.5252342,2.08138599 19.2987453,2.51228691 19.2988181,3.33843348 C19.2988181,4.16458005 19.5251614,4.59540866 19.7249231,4.9756111 C19.8937338,5.29694255 20.0270782,5.55079657 20.0270782,6.11093885 C20.0270782,6.67093647 19.8937338,6.92471817 19.7249231,7.24604963 C19.5251614,7.62617975 19.2987453,8.05700835 19.2988181,8.8830826 L19.2988181,8.8830826 Z" id="Shape"></path>
                        <path d="M6.37227532,25.3365838 L9.3313415,25.3365838 C11.6420378,27.670522 14.7195919,28.952738 18.0243631,28.952738 C20.8740446,28.952738 23.6471132,27.9556919 25.8327672,26.1452282 C26.0644995,25.9533551 26.0955962,25.6112669 25.9023889,25.3812795 C25.7091086,25.1511475 25.3645688,25.1202655 25.1331278,25.3121386 C23.1434485,26.9603094 20.6188623,27.867964 18.0244359,27.867964 C14.9436046,27.867964 12.0795764,26.6438959 9.95990274,24.4212629 C9.85678112,24.3130676 9.71331389,24.2518099 9.56336515,24.2518099 L6.37227532,24.2518099 C4.96199976,24.2518099 3.63612954,23.7064216 2.63885024,22.7160293 C1.64157095,21.7255647 1.09239006,20.4088506 1.09239006,19.0083141 C1.09239006,17.6077053 1.64157095,16.2909913 2.63877742,15.300599 C3.63591106,14.310279 4.96178128,13.7648907 6.3722025,13.7648907 L8.55698261,13.7648907 C8.85870074,13.7648907 9.10317763,13.5221021 9.10317763,13.2224675 C9.10317763,12.922833 8.85870074,12.6800444 8.55698261,12.6800444 L6.91839752,12.6800444 L6.91839752,11.5951982 L29.1303286,11.5951982 L29.1303286,12.6800444 L27.1276135,12.6800444 C26.8258954,12.6800444 26.5814185,12.922833 26.5814185,13.2224675 L26.5814185,17.5618525 C26.5814185,17.8609808 26.3364318,18.1042756 26.0352235,18.1042756 C25.7340151,18.1042756 25.4890285,17.8609808 25.4890285,17.5618525 L25.4890285,13.2224675 C25.4890285,12.922833 25.2445516,12.6800444 24.9428334,12.6800444 L22.7580533,12.6800444 C22.4563352,12.6800444 22.2118583,12.922833 22.2118583,13.2224675 L22.2118583,19.731545 C22.2118583,20.0306732 21.9668716,20.2739681 21.6656633,20.2739681 C21.3644549,20.2739681 21.1194682,20.0306732 21.1194682,19.731545 L21.1194682,13.2224675 C21.1194682,12.922833 20.8749913,12.6800444 20.5732732,12.6800444 L10.7417627,12.6800444 C10.4400446,12.6800444 10.1955677,12.922833 10.1955677,13.2224675 C10.1955677,13.5221021 10.4400446,13.7648907 10.7417627,13.7648907 L20.0270782,13.7648907 L20.0270782,19.731545 C20.0270782,20.6287851 20.7621839,21.3588143 21.6656633,21.3588143 C22.5691427,21.3588143 23.3042483,20.6287851 23.3042483,19.731545 L23.3042483,13.7648907 L24.3966384,13.7648907 L24.3966384,17.5618525 C24.3966384,18.4590926 25.1317441,19.1891218 26.0352235,19.1891218 C26.9387029,19.1891218 27.6738086,18.4590926 27.6738086,17.5618525 L27.6738086,13.7648907 L29.1303286,13.7648907 L29.1303286,16.8386217 C29.1303286,19.4150591 28.2163623,21.9222111 26.5568033,23.8981501 C26.3635959,24.1282098 26.3947655,24.4702256 26.626425,24.6620988 C26.8580117,24.8539719 27.2024058,24.82309 27.3956861,24.5929579 C29.2186666,22.4223252 30.2226459,19.6684792 30.2226459,16.8385493 L30.2226459,11.0527027 C30.2226459,10.7530682 29.978169,10.5102796 29.6764508,10.5102796 L6.37212967,10.5102796 C6.07041154,10.5102796 5.82593464,10.7530682 5.82593464,11.0527027 L5.82593464,12.7026815 C4.32979722,12.8279451 2.94013142,13.4669196 1.86623917,14.5333957 C0.662862285,15.7287516 0,17.317979 0,19.0083141 C0,20.6986492 0.662862285,22.2878043 1.86638482,23.4830879 C3.06998018,24.6783715 4.67018596,25.3365838 6.37227532,25.3365838 L6.37227532,25.3365838 Z" id="Shape"></path>
                        <path d="M6.3722025,14.8497369 C5.2536679,14.8497369 4.20206041,15.2823012 3.41124284,16.0677299 C2.62035244,16.8531586 2.18478011,17.8975039 2.18478011,19.0083141 C2.18478011,20.119052 2.62035244,21.1633973 3.41131566,21.9488983 C4.20220606,22.7342547 5.25381356,23.1668914 6.37227532,23.1668914 L7.93140723,23.1668914 C8.12665375,23.1668914 8.30697093,23.063397 8.40455778,22.8954628 C8.5020718,22.7275286 8.50192615,22.5206123 8.40419365,22.3528228 C7.43211215,20.6841846 6.91839752,18.7773142 6.91839752,16.8386217 L6.91839752,15.39216 C6.91839752,15.0925978 6.67392063,14.8497369 6.3722025,14.8497369 L6.3722025,14.8497369 Z M7.02567023,22.0820451 L6.37227532,22.0820451 C5.54555453,22.0820451 4.76835542,21.7623048 4.18378108,21.1817674 C3.59913393,20.60123 3.27717017,19.8293258 3.27717017,19.0083141 C3.27717017,18.1872302 3.59913393,17.4153982 4.18370826,16.8347885 C4.63734144,16.3842881 5.20713209,16.090801 5.82600747,15.9819547 L5.82600747,16.8386217 C5.82600747,18.658849 6.2386396,20.4539079 7.02567023,22.0820451 L7.02567023,22.0820451 Z" id="Shape"></path>
                    </g>
                </g>
            </g>
        </g>
    </g>
</svg>