<?xml version="1.0" encoding="UTF-8" standalone="no"?>
<svg width="29px" height="29px" viewBox="0 0 29 29" version="1.1" xmlns="http://www.w3.org/2000/svg" xmlns:xlink="http://www.w3.org/1999/xlink">
    <!-- Generator: Sketch 39.1 (31720) - http://www.bohemiancoding.com/sketch -->
    <title>large-lockers</title>
    <desc>Created with Sketch.</desc>
    <defs></defs>
    <g id="Welcome" stroke="none" stroke-width="1" fill="none" fill-rule="evenodd">
        <g id="Facilities" transform="translate(-645.000000, -774.000000)" fill="#DC4B85">
            <g id="ICONS" transform="translate(184.000000, 729.000000)">
                <g id="large-lockers" transform="translate(461.000000, 45.000000)">
                    <g id="Capa_1">
                        <g id="Group">
                            <path d="M7.35285745,2.46808511 L2.93085106,2.46808511 C2.67528085,2.46808511 2.46808511,2.67528085 2.46808511,2.93085106 C2.46808511,3.18642128 2.67528085,3.39361702 2.93085106,3.39361702 L7.35285745,3.39361702 C7.60842766,3.39361702 7.8156234,3.18642128 7.8156234,2.93085106 C7.8156234,2.67528085 7.60842766,2.46808511 7.35285745,2.46808511 L7.35285745,2.46808511 Z" id="Shape"></path>
                            <path d="M7.35285745,4.31914894 L2.93085106,4.31914894 C2.67528085,4.31914894 2.46808511,4.52634468 2.46808511,4.78191489 C2.46808511,5.03748511 2.67528085,5.24468085 2.93085106,5.24468085 L7.35285745,5.24468085 C7.60842766,5.24468085 7.8156234,5.03748511 7.8156234,4.78191489 C7.8156234,4.52634468 7.60842766,4.31914894 7.35285745,4.31914894 L7.35285745,4.31914894 Z" id="Shape"></path>
                            <path d="M7.35285745,6.17021277 L2.93085106,6.17021277 C2.67528085,6.17021277 2.46808511,6.37740851 2.46808511,6.63297872 C2.46808511,6.88854894 2.67528085,7.09574468 2.93085106,7.09574468 L7.35285745,7.09574468 C7.60842766,7.09574468 7.8156234,6.88854894 7.8156234,6.63297872 C7.8156234,6.37740851 7.60842766,6.17021277 7.35285745,6.17021277 L7.35285745,6.17021277 Z" id="Shape"></path>
                            <path d="M7.35285745,20.0531915 L2.93085106,20.0531915 C2.67528085,20.0531915 2.46808511,20.2603872 2.46808511,20.5159574 C2.46808511,20.7715277 2.67528085,20.9787234 2.93085106,20.9787234 L7.35285745,20.9787234 C7.60842766,20.9787234 7.8156234,20.7715277 7.8156234,20.5159574 C7.8156234,20.2603872 7.60842766,20.0531915 7.35285745,20.0531915 L7.35285745,20.0531915 Z" id="Shape"></path>
                            <path d="M7.35285745,21.9042553 L2.93085106,21.9042553 C2.67528085,21.9042553 2.46808511,22.1114511 2.46808511,22.3670213 C2.46808511,22.6225915 2.67528085,22.8297872 2.93085106,22.8297872 L7.35285745,22.8297872 C7.60842766,22.8297872 7.8156234,22.6225915 7.8156234,22.3670213 C7.8156234,22.1114511 7.60842766,21.9042553 7.35285745,21.9042553 L7.35285745,21.9042553 Z" id="Shape"></path>
                            <path d="M7.35285745,23.7553191 L2.93085106,23.7553191 C2.67528085,23.7553191 2.46808511,23.9625149 2.46808511,24.2180851 C2.46808511,24.4736553 2.67528085,24.6808511 2.93085106,24.6808511 L7.35285745,24.6808511 C7.60842766,24.6808511 7.8156234,24.4736553 7.8156234,24.2180851 C7.8156234,23.9625149 7.60842766,23.7553191 7.35285745,23.7553191 L7.35285745,23.7553191 Z" id="Shape"></path>
                            <path d="M3.85638298,14.962766 C4.62192128,14.962766 5.24468085,14.3399447 5.24468085,13.5744681 C5.24468085,12.8089915 4.62192128,12.1861702 3.85638298,12.1861702 C3.09084468,12.1861702 2.46808511,12.8089915 2.46808511,13.5744681 C2.46808511,14.3399447 3.09090638,14.962766 3.85638298,14.962766 L3.85638298,14.962766 Z M3.85638298,13.1117021 C4.11158298,13.1117021 4.31914894,13.3193298 4.31914894,13.5744681 C4.31914894,13.8296064 4.11158298,14.037234 3.85638298,14.037234 C3.60118298,14.037234 3.39361702,13.8296064 3.39361702,13.5744681 C3.39361702,13.3193298 3.60124468,13.1117021 3.85638298,13.1117021 L3.85638298,13.1117021 Z" id="Shape"></path>
                            <path d="M16.711034,2.46808511 L12.2890277,2.46808511 C12.0334574,2.46808511 11.8262617,2.67528085 11.8262617,2.93085106 C11.8262617,3.18642128 12.0334574,3.39361702 12.2890277,3.39361702 L16.711034,3.39361702 C16.966666,3.39361702 17.1738,3.18642128 17.1738,2.93085106 C17.1738,2.67528085 16.9666043,2.46808511 16.711034,2.46808511 L16.711034,2.46808511 Z" id="Shape"></path>
                            <path d="M16.711034,4.31914894 L12.2890277,4.31914894 C12.0334574,4.31914894 11.8262617,4.52634468 11.8262617,4.78191489 C11.8262617,5.03748511 12.0334574,5.24468085 12.2890277,5.24468085 L16.711034,5.24468085 C16.966666,5.24468085 17.1738,5.03748511 17.1738,4.78191489 C17.1738,4.52634468 16.9666043,4.31914894 16.711034,4.31914894 L16.711034,4.31914894 Z" id="Shape"></path>
                            <path d="M16.711034,6.17021277 L12.2890277,6.17021277 C12.0334574,6.17021277 11.8262617,6.37740851 11.8262617,6.63297872 C11.8262617,6.88854894 12.0334574,7.09574468 12.2890277,7.09574468 L16.711034,7.09574468 C16.966666,7.09574468 17.1738,6.88854894 17.1738,6.63297872 C17.1738,6.37740851 16.9666043,6.17021277 16.711034,6.17021277 L16.711034,6.17021277 Z" id="Shape"></path>
                            <path d="M16.711034,20.0531915 L12.2890277,20.0531915 C12.0334574,20.0531915 11.8262617,20.2603872 11.8262617,20.5159574 C11.8262617,20.7715277 12.0334574,20.9787234 12.2890277,20.9787234 L16.711034,20.9787234 C16.966666,20.9787234 17.1738,20.7715277 17.1738,20.5159574 C17.1738,20.2603872 16.9666043,20.0531915 16.711034,20.0531915 L16.711034,20.0531915 Z" id="Shape"></path>
                            <path d="M16.711034,21.9042553 L12.2890277,21.9042553 C12.0334574,21.9042553 11.8262617,22.1114511 11.8262617,22.3670213 C11.8262617,22.6225915 12.0334574,22.8297872 12.2890277,22.8297872 L16.711034,22.8297872 C16.966666,22.8297872 17.1738,22.6225915 17.1738,22.3670213 C17.1738,22.1114511 16.9666043,21.9042553 16.711034,21.9042553 L16.711034,21.9042553 Z" id="Shape"></path>
                            <path d="M16.711034,23.7553191 L12.2890277,23.7553191 C12.0334574,23.7553191 11.8262617,23.9625149 11.8262617,24.2180851 C11.8262617,24.4736553 12.0334574,24.6808511 12.2890277,24.6808511 L16.711034,24.6808511 C16.966666,24.6808511 17.1738,24.4736553 17.1738,24.2180851 C17.1738,23.9625149 16.9666043,23.7553191 16.711034,23.7553191 L16.711034,23.7553191 Z" id="Shape"></path>
                            <path d="M13.2145596,14.962766 C13.9800979,14.962766 14.6028574,14.3399447 14.6028574,13.5744681 C14.6028574,12.8089915 13.9800979,12.1861702 13.2145596,12.1861702 C12.4490213,12.1861702 11.8262617,12.8089915 11.8262617,13.5744681 C11.8262617,14.3399447 12.4490213,14.962766 13.2145596,14.962766 L13.2145596,14.962766 Z M13.2145596,13.1117021 C13.4697596,13.1117021 13.6773255,13.3193298 13.6773255,13.5744681 C13.6773255,13.8296064 13.4697596,14.037234 13.2145596,14.037234 C12.9593596,14.037234 12.7517936,13.8296064 12.7517936,13.5744681 C12.7517936,13.3193298 12.9593596,13.1117021 13.2145596,13.1117021 L13.2145596,13.1117021 Z" id="Shape"></path>
                            <path d="M21.6472043,3.39361702 L26.0691489,3.39361702 C26.3247809,3.39361702 26.5319149,3.18642128 26.5319149,2.93085106 C26.5319149,2.67528085 26.3247809,2.46808511 26.0691489,2.46808511 L21.6472043,2.46808511 C21.3915723,2.46808511 21.1844383,2.67528085 21.1844383,2.93085106 C21.1844383,3.18642128 21.3915723,3.39361702 21.6472043,3.39361702 L21.6472043,3.39361702 Z" id="Shape"></path>
                            <path d="M26.0691489,4.31914894 L21.6472043,4.31914894 C21.3915723,4.31914894 21.1844383,4.52634468 21.1844383,4.78191489 C21.1844383,5.03748511 21.3915723,5.24468085 21.6472043,5.24468085 L26.0691489,5.24468085 C26.3247809,5.24468085 26.5319149,5.03748511 26.5319149,4.78191489 C26.5319149,4.52634468 26.3247191,4.31914894 26.0691489,4.31914894 L26.0691489,4.31914894 Z" id="Shape"></path>
                            <path d="M26.0691489,6.17021277 L21.6472043,6.17021277 C21.3915723,6.17021277 21.1844383,6.37740851 21.1844383,6.63297872 C21.1844383,6.88854894 21.3915723,7.09574468 21.6472043,7.09574468 L26.0691489,7.09574468 C26.3247809,7.09574468 26.5319149,6.88854894 26.5319149,6.63297872 C26.5319149,6.37740851 26.3247191,6.17021277 26.0691489,6.17021277 L26.0691489,6.17021277 Z" id="Shape"></path>
                            <path d="M26.0691489,20.0531915 L21.6472043,20.0531915 C21.3915723,20.0531915 21.1844383,20.2603872 21.1844383,20.5159574 C21.1844383,20.7715277 21.3915723,20.9787234 21.6472043,20.9787234 L26.0691489,20.9787234 C26.3247809,20.9787234 26.5319149,20.7715277 26.5319149,20.5159574 C26.5319149,20.2603872 26.3247191,20.0531915 26.0691489,20.0531915 L26.0691489,20.0531915 Z" id="Shape"></path>
                            <path d="M26.0691489,21.9042553 L21.6472043,21.9042553 C21.3915723,21.9042553 21.1844383,22.1114511 21.1844383,22.3670213 C21.1844383,22.6225915 21.3915723,22.8297872 21.6472043,22.8297872 L26.0691489,22.8297872 C26.3247809,22.8297872 26.5319149,22.6225915 26.5319149,22.3670213 C26.5319149,22.1114511 26.3247191,21.9042553 26.0691489,21.9042553 L26.0691489,21.9042553 Z" id="Shape"></path>
                            <path d="M26.0691489,23.7553191 L21.6472043,23.7553191 C21.3915723,23.7553191 21.1844383,23.9625149 21.1844383,24.2180851 C21.1844383,24.4736553 21.3915723,24.6808511 21.6472043,24.6808511 L26.0691489,24.6808511 C26.3247809,24.6808511 26.5319149,24.4736553 26.5319149,24.2180851 C26.5319149,23.9625149 26.3247191,23.7553191 26.0691489,23.7553191 L26.0691489,23.7553191 Z" id="Shape"></path>
                            <path d="M22.5727362,14.962766 C23.3382128,14.962766 23.961034,14.3399447 23.961034,13.5744681 C23.961034,12.8089915 23.3382128,12.1861702 22.5727362,12.1861702 C21.8072596,12.1861702 21.1844383,12.8089915 21.1844383,13.5744681 C21.1844383,14.3399447 21.8071979,14.962766 22.5727362,14.962766 L22.5727362,14.962766 Z M22.5727362,13.1117021 C22.8279362,13.1117021 23.0355021,13.3193298 23.0355021,13.5744681 C23.0355021,13.8296064 22.8279362,14.037234 22.5727362,14.037234 C22.3175362,14.037234 22.1099702,13.8296064 22.1099702,13.5744681 C22.1099702,13.3193298 22.3175362,13.1117021 22.5727362,13.1117021 L22.5727362,13.1117021 Z" id="Shape"></path>
                            <path d="M28.537234,0 L0.462765957,0 C0.207195745,0 0,0.207195745 0,0.462765957 L0,28.537234 C0,28.7928043 0.207195745,29 0.462765957,29 C0.71833617,29 0.925531915,28.7928043 0.925531915,28.537234 L0.925531915,27.1489362 L9.3581766,27.1489362 L9.3581766,28.537234 C9.3581766,28.7928043 9.56537234,29 9.82094255,29 C10.0765128,29 10.2837085,28.7928043 10.2837085,28.537234 L10.2837085,27.1489362 L18.7163532,27.1489362 L18.7163532,28.537234 C18.7163532,28.7928043 18.9234872,29 19.1791191,29 C19.4347511,29 19.6418851,28.7928043 19.6418851,28.537234 L19.6418851,27.1489362 L28.0744681,27.1489362 L28.0744681,28.537234 C28.0744681,28.7928043 28.2816021,29 28.537234,29 C28.792866,29 29,28.7928043 29,28.537234 L29,0.462765957 C29,0.207195745 28.7928043,0 28.537234,0 L28.537234,0 Z M19.6418851,26.2234043 L19.6418851,6.63297872 C19.6418851,6.37740851 19.4347511,6.17021277 19.1791191,6.17021277 C18.9234872,6.17021277 18.7163532,6.37740851 18.7163532,6.63297872 L18.7163532,26.2234043 L10.2837085,26.2234043 L10.2837085,20.5159574 C10.2837085,20.2603872 10.0765128,20.0531915 9.82094255,20.0531915 C9.56537234,20.0531915 9.3581766,20.2603872 9.3581766,20.5159574 L9.3581766,26.2234043 L0.925531915,26.2234043 L0.925531915,0.925531915 L9.3581766,0.925531915 L9.3581766,18.6648936 C9.3581766,18.9204638 9.56537234,19.1276596 9.82094255,19.1276596 C10.0765128,19.1276596 10.2837085,18.9204638 10.2837085,18.6648936 L10.2837085,0.925531915 L18.7163532,0.925531915 L18.7163532,4.78191489 C18.7163532,5.03748511 18.9234872,5.24468085 19.1791191,5.24468085 C19.4347511,5.24468085 19.6418851,5.03748511 19.6418851,4.78191489 L19.6418851,0.925531915 L28.0744681,0.925531915 L28.0744681,26.2234043 L19.6418851,26.2234043 L19.6418851,26.2234043 Z" id="Shape"></path>
                        </g>
                    </g>
                </g>
            </g>
        </g>
    </g>
</svg>