<?xml version="1.0" encoding="UTF-8" standalone="no"?>
<svg width="28px" height="37px" viewBox="0 0 28 37" version="1.1" xmlns="http://www.w3.org/2000/svg" xmlns:xlink="http://www.w3.org/1999/xlink">
    <!-- Generator: Sketch 39.1 (31720) - http://www.bohemiancoding.com/sketch -->
    <title>nearby-train-station</title>
    <desc>Created with Sketch.</desc>
    <defs></defs>
    <g id="Welcome" stroke="none" stroke-width="1" fill="none" fill-rule="evenodd">
        <g id="Facilities" transform="translate(-645.000000, -869.000000)" fill="#DC4B85">
            <g id="ICONS" transform="translate(184.000000, 729.000000)">
                <g id="nearby-train-station" transform="translate(461.000000, 140.000000)">
                    <g id="Layer_1">
                        <g id="Group">
                            <path d="M13.8922803,8.09375 C15.4411975,8.09375 16.7011975,6.83699519 16.7011975,5.29206731 C16.7011975,3.74713942 15.4411975,2.49038462 13.8922803,2.49038462 C12.3433631,2.49038462 11.0833631,3.74713942 11.0833631,5.29206731 C11.0833631,6.83699519 12.3433631,8.09375 13.8922803,8.09375 L13.8922803,8.09375 Z M13.8922803,3.73557692 C14.7529682,3.73557692 15.4527898,4.43395192 15.4527898,5.29206731 C15.4527898,6.15018269 14.7529682,6.84855769 13.8922803,6.84855769 C13.0315924,6.84855769 12.3317707,6.15018269 12.3317707,5.29206731 C12.3317707,4.43395192 13.0315924,3.73557692 13.8922803,3.73557692 L13.8922803,3.73557692 Z" id="Shape"></path>
                            <path d="M22.3190318,11.2067308 L5.46552866,11.2067308 C5.12061146,11.2067308 4.84132484,11.485476 4.84132484,11.8293269 L4.84132484,19.9230769 C4.84132484,20.2669279 5.12061146,20.5456731 5.46552866,20.5456731 L22.3190318,20.5456731 C22.663949,20.5456731 22.9432357,20.2669279 22.9432357,19.9230769 L22.9432357,11.8293269 C22.9432357,11.485476 22.6641274,11.2067308 22.3190318,11.2067308 L22.3190318,11.2067308 Z M21.694828,19.3004808 L6.08973248,19.3004808 L6.08973248,12.4519231 L21.694828,12.4519231 L21.694828,19.3004808 L21.694828,19.3004808 Z" id="Shape"></path>
                            <path d="M7.33814013,23.6586538 C6.30552866,23.6586538 5.46552866,24.4982692 5.46552866,25.5301779 L5.46552866,27.3906731 C5.46552866,28.4224038 6.30552866,29.2621971 7.33814013,29.2621971 C8.37075159,29.2621971 9.21075159,28.4225817 9.21075159,27.3906731 L9.21075159,25.5301779 C9.21075159,24.4982692 8.37075159,23.6586538 7.33814013,23.6586538 L7.33814013,23.6586538 Z M7.96234395,27.3904952 C7.96234395,27.7416394 7.68805096,28.0168269 7.33814013,28.0168269 C6.9882293,28.0168269 6.71393631,27.7416394 6.71393631,27.3904952 L6.71393631,25.53 C6.71393631,25.1788558 6.9882293,24.9036683 7.33814013,24.9036683 C7.68805096,24.9036683 7.96234395,25.1788558 7.96234395,25.53 L7.96234395,27.3904952 L7.96234395,27.3904952 Z" id="Shape"></path>
                            <path d="M20.4464204,23.6586538 C19.4138089,23.6586538 18.5738089,24.4982692 18.5738089,25.5301779 L18.5738089,27.3906731 C18.5738089,28.4224038 19.4138089,29.2621971 20.4464204,29.2621971 C21.4790318,29.2621971 22.3190318,28.4225817 22.3190318,27.3906731 L22.3190318,25.5301779 C22.3190318,24.4982692 21.4790318,23.6586538 20.4464204,23.6586538 L20.4464204,23.6586538 Z M21.0706242,27.3904952 C21.0706242,27.7416394 20.7963312,28.0168269 20.4464204,28.0168269 C20.0965096,28.0168269 19.8222166,27.7416394 19.8222166,27.3904952 L19.8222166,25.53 C19.8222166,25.1788558 20.0965096,24.9036683 20.4464204,24.9036683 C20.7963312,24.9036683 21.0706242,25.1788558 21.0706242,25.53 L21.0706242,27.3904952 L21.0706242,27.3904952 Z" id="Shape"></path>
                            <path d="M7.33814013,16.1875 C7.49793631,16.1875 7.65755414,16.1266635 7.77936306,16.0051683 L9.65197452,14.1373798 C9.8957707,13.8942115 9.8957707,13.5001971 9.65197452,13.2570288 C9.40817834,13.0138606 9.0131465,13.0138606 8.76935032,13.2570288 L6.89673885,15.1248173 C6.65294268,15.3679856 6.65294268,15.762 6.89673885,16.0051683 C7.01872611,16.1266635 7.17852229,16.1875 7.33814013,16.1875 L7.33814013,16.1875 Z" id="Shape"></path>
                            <path d="M27.8057834,35.8120865 L24.4247389,31.7524038 L24.8160255,31.7524038 C25.1609427,31.7524038 25.4402293,31.4736587 25.4402293,31.1298077 L25.4402293,11.8464038 C25.4402293,9.43375481 23.4755924,7.47115385 21.0604586,7.47115385 L19.1981911,7.47115385 L19.1981911,5.2979375 C19.1980127,2.37671635 16.8174777,0 13.8922803,0 C10.9669045,0 8.58654777,2.37671635 8.58654777,5.2979375 L8.58654777,7.47115385 L6.72428025,7.47115385 C4.3091465,7.47115385 2.34450955,9.43375481 2.34450955,11.8464038 L2.34450955,31.1298077 C2.34450955,31.4736587 2.62379618,31.7524038 2.96871338,31.7524038 L3.58614013,31.7524038 L0.204917197,35.8120865 C-0.0151592357,36.076601 0.0214012739,36.4693702 0.286598726,36.6888798 C0.403057325,36.785649 0.544484076,36.8327885 0.68466242,36.8327885 C0.863898089,36.8327885 1.04188535,36.7562981 1.16565605,36.6081202 L5.2096051,31.7524038 L22.8009172,31.7524038 L26.8450446,36.6079423 C26.9688153,36.7559423 27.1468025,36.8326106 27.3260382,36.8326106 C27.4662166,36.8326106 27.6076433,36.7854712 27.7241019,36.6888798 C27.9892994,36.4693702 28.0256815,36.076601 27.8057834,35.8120865 L27.8057834,35.8120865 Z M24.1916433,30.5072115 L3.5929172,30.5072115 L3.5929172,11.8464038 C3.5929172,10.1205673 4.9973758,8.71634615 6.72428025,8.71634615 L9.21075159,8.71634615 C9.55566879,8.71634615 9.83495541,8.43760096 9.83495541,8.09375 L9.83495541,5.2979375 C9.83495541,3.06317308 11.6551338,1.24519231 13.8922803,1.24519231 C16.1294268,1.24519231 17.9496051,3.06317308 17.9496051,5.2979375 L17.9496051,8.09375 C17.9496051,8.43760096 18.2288917,8.71634615 18.5738089,8.71634615 L21.0602803,8.71634615 C22.7871847,8.71634615 24.1916433,10.1205673 24.1916433,11.8464038 L24.1916433,30.5072115 L24.1916433,30.5072115 Z" id="Shape"></path>
                        </g>
                    </g>
                </g>
            </g>
        </g>
    </g>
</svg>