<?xml version="1.0" encoding="UTF-8" standalone="no"?>
<svg width="30px" height="30px" viewBox="0 0 30 30" version="1.1" xmlns="http://www.w3.org/2000/svg" xmlns:xlink="http://www.w3.org/1999/xlink">
    <!-- Generator: Sketch 39.1 (31720) - http://www.bohemiancoding.com/sketch -->
    <title>nearby-atm</title>
    <desc>Created with Sketch.</desc>
    <defs></defs>
    <g id="Welcome" stroke="none" stroke-width="1" fill="none" fill-rule="evenodd">
        <g id="Facilities" transform="translate(-644.000000, -824.000000)" fill="#DC4B85">
            <g id="ICONS" transform="translate(184.000000, 729.000000)">
                <g id="nearby-atm" transform="translate(460.000000, 95.000000)">
                    <g id="Capa_1">
                        <g id="Group">
                            <path d="M29.5,18 L29,18 L29,0.5 C29,0.2 28.8,0 28.5,0 L1.5,0 C1.2,0 1,0.2 1,0.5 L1,18 L0.5,18 C0.2,18 0,18.2 0,18.5 L0,25 C0,25.3 0.2,25.5 0.5,25.5 L5.5,25.5 L5.5,24.5 L1,24.5 L1,19 L1.5,19 L28.5,19 L29,19 L29,24.5 L16.5,24.5 L16.5,25.5 L29.5,25.5 C29.8,25.5 30,25.3 30,25 L30,18.5 C30,18.2 29.8,18 29.5,18 L29.5,18 Z M2,18 L2,1 L28,1 L28,18 L2,18 L2,18 Z" id="Shape"></path>
                            <path d="M17,3 L3.5,3 C3.2,3 3,3.2 3,3.5 L3,15.5 C3,15.8 3.2,16 3.5,16 L17,16 C17.3,16 17.5,15.8 17.5,15.5 L17.5,3.5 C17.5,3.2 17.3,3 17,3 L17,3 Z M16.5,12 L13,12 L13,4 L16.5,4 L16.5,12 L16.5,12 Z M12,4 L12,12 L4,12 L4,4 L12,4 L12,4 Z M4,15 L4,13 L16.5,13 L16.5,15 L4,15 L4,15 Z" id="Shape"></path>
                            <path d="M17.5,22 L17.5,21 L15,21 L7,21 L4.5,21 L4.5,22 L6.5,22 L6.5,29.5 C6.5,29.8 6.7,30 7,30 L15,30 C15.3,30 15.5,29.8 15.5,29.5 L15.5,22 L17.5,22 L17.5,22 Z M12.5,22 C12.5,22.55 12.05,23 11.5,23 L10.5,23 C9.95,23 9.5,22.55 9.5,22 L12.5,22 L12.5,22 Z M14.5,29 L7.5,29 L7.5,22 L8.5,22 C8.5,23.1 9.4,24 10.5,24 L11.5,24 C12.6,24 13.5,23.1 13.5,22 L14.5,22 L14.5,29 L14.5,29 Z" id="Shape"></path>
                            <path d="M26.5,3 L19.5,3 C19.2,3 19,3.2 19,3.5 L19,6.5 C19,6.8 19.2,7 19.5,7 L26.5,7 C26.8,7 27,6.8 27,6.5 L27,3.5 C27,3.2 26.8,3 26.5,3 L26.5,3 Z M26,6 L20,6 L20,4 L26,4 L26,6 L26,6 Z" id="Shape"></path>
                            <rect id="Rectangle-path" x="19.5" y="8.5" width="1" height="1"></rect>
                            <rect id="Rectangle-path" x="21.5" y="8.5" width="1" height="1"></rect>
                            <rect id="Rectangle-path" x="23.5" y="8.5" width="1" height="1"></rect>
                            <rect id="Rectangle-path" x="25.5" y="8.5" width="1" height="1"></rect>
                            <rect id="Rectangle-path" x="19.5" y="10.5" width="1" height="1"></rect>
                            <rect id="Rectangle-path" x="21.5" y="10.5" width="1" height="1"></rect>
                            <rect id="Rectangle-path" x="23.5" y="10.5" width="1" height="1"></rect>
                            <rect id="Rectangle-path" x="25.5" y="10.5" width="1" height="1"></rect>
                            <rect id="Rectangle-path" x="19.5" y="12.5" width="1" height="1"></rect>
                            <rect id="Rectangle-path" x="21.5" y="12.5" width="1" height="1"></rect>
                            <rect id="Rectangle-path" x="23.5" y="12.5" width="1" height="1"></rect>
                            <rect id="Rectangle-path" x="25.5" y="12.5" width="1" height="1"></rect>
                            <rect id="Rectangle-path" x="19.5" y="14.5" width="1" height="1"></rect>
                            <rect id="Rectangle-path" x="21.5" y="14.5" width="1" height="1"></rect>
                            <rect id="Rectangle-path" x="23.5" y="14.5" width="1" height="1"></rect>
                            <rect id="Rectangle-path" x="25.5" y="14.5" width="1" height="1"></rect>
                            <rect id="Rectangle-path" x="18.5" y="21" width="2" height="1"></rect>
                            <rect id="Rectangle-path" x="21.5" y="21" width="2" height="1"></rect>
                            <path d="M9,26.5 L8,26.5 L8,28 C8,28.3 8.2,28.5 8.5,28.5 L10,28.5 L10,27.5 L9,27.5 L9,26.5 L9,26.5 Z" id="Shape"></path>
                            <path d="M13,27.5 L12,27.5 L12,28.5 L13.5,28.5 C13.8,28.5 14,28.3 14,28 L14,26.5 L13,26.5 L13,27.5 L13,27.5 Z" id="Shape"></path>
                            <rect id="Rectangle-path" x="14" y="5.5" width="1.5" height="1"></rect>
                            <rect id="Rectangle-path" x="14" y="7.5" width="1.5" height="1"></rect>
                            <rect id="Rectangle-path" x="14" y="9.5" width="1.5" height="1"></rect>
                            <path d="M7,10.5 L7.5,10.5 L7.5,11 L8.5,11 L8.5,10.5 L9,10.5 C9.6,10.5 10,10.1 10,9.5 L10,8.5 C10,7.9 9.6,7.5 9,7.5 L7,7.5 L7,6.5 L9,6.5 L9,7 L10,7 L10,6.5 C10,5.9 9.6,5.5 9,5.5 L8.5,5.5 L8.5,5 L7.5,5 L7.5,5.5 L7,5.5 C6.4,5.5 6,5.9 6,6.5 L6,7.5 C6,8.1 6.4,8.5 7,8.5 L9,8.5 L9,9.5 L7,9.5 L7,9 L6,9 L6,9.5 C6,10.1 6.4,10.5 7,10.5 L7,10.5 Z" id="Shape"></path>
                        </g>
                    </g>
                </g>
            </g>
        </g>
    </g>
</svg>