<?xml version="1.0" encoding="UTF-8" standalone="no"?>
<svg width="27px" height="36px" viewBox="0 0 27 36" version="1.1" xmlns="http://www.w3.org/2000/svg" xmlns:xlink="http://www.w3.org/1999/xlink">
    <!-- Generator: Sketch 39.1 (31720) - http://www.bohemiancoding.com/sketch -->
    <title>night-light-upon-request</title>
    <desc>Created with Sketch.</desc>
    <defs></defs>
    <g id="Welcome" stroke="none" stroke-width="1" fill="none" fill-rule="evenodd">
        <g id="Facilities" transform="translate(-850.000000, -867.000000)" fill="#DC4B85">
            <g id="ICONS" transform="translate(184.000000, 729.000000)">
                <g id="night-light-upon-request" transform="translate(666.000000, 138.000000)">
                    <g id="Capa_1">
                        <g id="Group">
                            <path d="M10.2528662,31.5363182 C9.94439799,31.5363182 9.69295485,31.2843636 9.69295485,30.9738182 C9.69295485,30.6632727 9.94322408,30.4113182 10.2528662,30.4113182 L16.7482174,30.4113182 C17.0566856,30.4113182 17.3069548,30.6632727 17.3069548,30.9738182 C17.3069548,31.2843636 17.0566856,31.5363182 16.7482174,31.5363182 L10.2528662,31.5363182 L10.2528662,31.5363182 Z" id="Shape"></path>
                            <path d="M10.9745518,33.7687273 C10.6660836,33.7687273 10.4158144,33.5167727 10.4158144,33.2062273 C10.4158144,32.8956818 10.6672575,32.6437273 10.9745518,32.6437273 L16.0264866,32.6437273 C16.3349548,32.6437273 16.5852241,32.8956818 16.5852241,33.2062273 C16.5852241,33.5167727 16.3349548,33.7687273 16.0264866,33.7687273 L10.9745518,33.7687273 L10.9745518,33.7687273 Z" id="Shape"></path>
                            <path d="M12.9743579,25.9921818 C12.9743579,26.3015909 12.7252625,26.5523182 12.4179682,26.5523182 C12.1106739,26.5523182 11.8615786,26.3015 11.8615786,25.9921818 C11.8592308,23.6238182 11.7917308,21.8543182 11.4669632,20.216 C11.1457174,18.5965 10.5706355,17.0953182 9.54982776,15.2437273 C9.4008311,14.9730455 9.49745318,14.632 9.76519565,14.482 C10.034112,14.332 10.3728311,14.4292727 10.5230017,14.6988182 C11.606704,16.6652273 12.2201639,18.2660455 12.5623595,19.9969091 C12.9010334,21.7055 12.9720552,23.5406364 12.9743579,25.9921818 L12.9743579,25.9921818 Z" id="Shape"></path>
                            <path d="M15.139505,25.9921818 C15.139505,26.3015909 14.8903645,26.5523182 14.5831154,26.5523182 C14.2758662,26.5523182 14.0267258,26.3015 14.0267258,25.9921818 C14.0291187,23.5405455 14.1000502,21.7066364 14.4387692,19.9969091 C14.78101,18.2660455 15.3944699,16.6653182 16.4781722,14.6988182 C16.627214,14.4281364 16.9670619,14.3308636 17.2348495,14.482 C17.5037659,14.632 17.5991237,14.9741818 17.4502174,15.2437273 C16.4293645,17.0952727 15.8543278,18.5976818 15.5330368,20.216 C15.2093528,21.8543182 15.1407241,23.6238636 15.139505,25.9921818 L15.139505,25.9921818 Z" id="Shape"></path>
                            <path d="M9.86642308,15.5050909 C9.57308027,15.4113182 9.41243478,15.0949545 9.50558027,14.7995909 C9.59985452,14.5042727 9.91297324,14.3425455 10.2063612,14.4363182 C10.5951522,14.5629091 10.9315686,14.7328182 11.2423395,14.8898636 L11.2725903,14.9062727 C11.7579582,15.1523636 12.1619197,15.3445455 12.4622157,15.0984545 L13.149,14.5347727 C13.3876204,14.3402727 13.7392525,14.3765909 13.9324064,14.6168182 C14.1256505,14.8570455 14.0895301,15.2109545 13.8509097,15.4055 L13.1641254,15.9691818 C12.3085686,16.6699545 11.6089615,16.3289545 10.7662274,15.9035455 L10.7406271,15.8918182 C10.4682341,15.7535 10.1725435,15.6046818 9.86642308,15.5050909 L9.86642308,15.5050909 Z" id="Shape"></path>
                            <path d="M14.0593244,2.74218182 C14.0593244,3.05272727 13.8090552,3.30468182 13.5005418,3.30468182 C13.1920736,3.30468182 12.9418043,3.05272727 12.9418043,2.74218182 L12.9418043,0.5625 C12.9418043,0.251954545 13.1920736,0 13.5005418,0 C13.8091003,0 14.0593244,0.251954545 14.0593244,0.5625 L14.0593244,2.74218182 L14.0593244,2.74218182 Z" id="Shape"></path>
                            <path d="M16.7948127,14.4363182 C17.0881555,14.3414091 17.4024482,14.5043182 17.4955936,14.7995909 C17.5898679,15.0949091 17.4280936,15.4113182 17.1347508,15.5050909 C16.8286756,15.6046818 16.5329849,15.7546818 16.2593729,15.893 L16.2338177,15.9047273 C15.3921672,16.3300909 14.6914766,16.6723182 13.8359197,15.9703182 L13.1491355,15.4066818 C12.9105151,15.2121364 12.8744398,14.8582273 13.0676388,14.618 C13.2608829,14.3777727 13.6124247,14.3414545 13.8510903,14.5359545 L14.5378746,15.0996364 C14.8382157,15.3457273 15.2409582,15.1523636 15.7275452,14.9074545 L15.7578863,14.8910455 C16.0696054,14.7328182 16.4059766,14.5629091 16.7948127,14.4363182 L16.7948127,14.4363182 Z" id="Shape"></path>
                            <path d="M20.530204,8.74336364 C22.3286388,10.5539091 23.4426371,13.0570455 23.4426371,15.8203182 C23.4426371,16.9008182 23.270388,17.9449091 22.9537475,18.9235 C22.6266773,19.9348182 22.1412642,20.8781818 21.5301522,21.7196364 C20.5046488,23.1317273 19.6723896,24.0586818 19.0263311,24.7793182 C17.8634348,26.0742273 17.3535953,26.6415 17.3535953,28.5352273 C17.3535953,28.8457727 17.1033261,29.0977273 16.7948579,29.0977273 L16.7808161,29.0977273 L13.5250134,29.0977273 L10.2540853,29.0977273 C9.94561706,29.0977273 9.69417391,28.8457727 9.69417391,28.5352273 C9.69417391,26.6602273 9.17385953,26.0871818 8.01913545,24.8133182 L8.01796154,24.8121818 L8.01678763,24.8133182 C7.36377592,24.0938182 6.52334448,23.1668182 5.47219565,21.7195909 C4.86108361,20.8781364 4.37567057,19.9336364 4.04860033,18.9223182 C3.73195987,17.9449545 3.5597107,16.8996364 3.5597107,15.8203636 C3.5597107,14.4680455 3.82862709,13.1742727 4.3151689,11.993 L4.32564381,11.9707273 C4.83083278,10.7519545 5.56651505,9.65509091 6.47327258,8.74340909 C7.38589967,7.82468182 8.48125084,7.08168182 9.70117224,6.57309091 L9.70117224,6.57190909 C10.8744983,6.08209091 12.1596171,5.81136364 13.5029348,5.81136364 C14.843995,5.81136364 16.1278495,6.08209091 17.3023946,6.57190909 C18.5199231,7.0805 19.6175769,7.82463636 20.530204,8.74336364 L20.530204,8.74336364 L20.530204,8.74336364 Z M22.3239883,15.8203182 C22.3239883,13.3675909 21.3356438,11.1469091 19.7398445,9.53904545 C18.9239298,8.71754545 17.9518846,8.05663636 16.8763094,7.60895455 C15.8403311,7.17654545 14.6995585,6.9375 13.5005418,6.9375 C12.3027441,6.9375 11.1620167,7.17654545 10.1271672,7.60895455 L10.1271672,7.60781818 L10.1248194,7.60895455 C9.04924415,8.05663636 8.07846321,8.71754545 7.26245819,9.53904545 C6.45462542,10.3523182 5.80161371,11.3226364 5.35575251,12.3937273 L5.34410368,12.4241818 C4.91576087,13.4659545 4.67714047,14.6144091 4.67714047,15.8202727 C4.67714047,16.7835455 4.82961371,17.7116818 5.10900502,18.5753182 C5.40117391,19.4740909 5.83069064,20.3109091 6.37082609,21.0561818 C7.38007525,22.446 8.20185953,23.3519091 8.84091973,24.0573182 L8.83974582,24.0584545 C10.0829197,25.4260455 10.7010301,26.1104091 10.7976522,27.9736818 L13.5226656,27.9736818 L16.2476789,27.9736818 C16.3431271,26.0975455 16.9495886,25.4201818 18.198587,24.0303182 C18.8225217,23.3354091 19.6245301,22.4412727 20.6291288,21.0584545 C21.1692191,20.3143182 21.5987809,19.4775909 21.8897759,18.5787727 C22.1715151,17.7117273 22.3239883,16.7847727 22.3239883,15.8203182 L22.3239883,15.8203182 Z" id="Shape"></path>
                            <path d="M11.6962826,36 C11.3878144,36 11.1375452,35.7480455 11.1375452,35.4375 C11.1375452,35.1269545 11.3878144,34.875 11.6962826,34.875 L15.3048462,34.875 C15.6133144,34.875 15.8635836,35.1269545 15.8635836,35.4375 C15.8635836,35.7480455 15.6133144,36 15.3048462,36 L11.6962826,36 L11.6962826,36 Z" id="Shape"></path>
                            <path d="M20.355607,4.74022727 C20.2030435,5.00740909 19.8619766,5.1 19.595408,4.9465 C19.3300134,4.793 19.2381321,4.44963636 19.3906054,4.18127273 L20.4731789,2.29340909 C20.6256522,2.02622727 20.9667642,1.93363636 21.2332876,2.08713636 C21.4998562,2.24063636 21.5906538,2.584 21.4381806,2.85236364 L20.355607,4.74022727 L20.355607,4.74022727 Z" id="Shape"></path>
                            <path d="M7.6093495,4.18240909 C7.76182274,4.44959091 7.67107023,4.79295455 7.40445652,4.9465 C7.13906187,5.1 6.79799498,5.00740909 6.64552174,4.74022727 L5.56294816,2.85231818 C5.41047492,2.58513636 5.50240134,2.24177273 5.76784114,2.08827273 C6.0344097,1.93477273 6.37547659,2.02731818 6.52794983,2.2945 L7.6093495,4.18240909 L7.6093495,4.18240909 Z" id="Shape"></path>
                            <path d="M2.74018395,8.67186364 C3.0055786,8.82536364 3.09755017,9.16872727 2.94507692,9.43709091 C2.79260368,9.70427273 2.45149164,9.79686364 2.18609699,9.64336364 L0.310816054,8.5535 C0.0442474916,8.4 -0.0476789298,8.05663636 0.104794314,7.78945455 C0.257267559,7.52109091 0.598334448,7.42968182 0.86490301,7.58318182 L2.74018395,8.67186364 L2.74018395,8.67186364 Z" id="Shape"></path>
                            <path d="M24.8149866,9.64336364 C24.5484181,9.79686364 24.2073512,9.70431818 24.0548779,9.43709091 C23.9023595,9.16872727 23.9943311,8.82536364 24.2597258,8.67186364 L26.1350067,7.582 C26.4014849,7.4285 26.7425518,7.52104545 26.8951154,7.78827273 C27.0475886,8.05545455 26.9556622,8.4 26.6902224,8.5535 L24.8149866,9.64336364 L24.8149866,9.64336364 Z" id="Shape"></path>
                            <path d="M7.69549666,18.0433636 C7.81424247,18.3281364 7.68154515,18.6574091 7.39867726,18.7769545 C7.11580936,18.8965 6.78873913,18.7628636 6.66999331,18.4781364 C6.48022575,18.0258636 6.33240301,17.5489091 6.23460702,17.0567273 C6.13798495,16.5704091 6.08561037,16.0735455 6.08561037,15.5743182 C6.08561037,15.2637727 6.33705351,15.0118182 6.64434783,15.0118182 C6.95281605,15.0118182 7.20308528,15.2649545 7.20308528,15.5743182 C7.20308528,16.0137727 7.24615886,16.4368182 7.32648161,16.8375909 C7.40915217,17.2546818 7.53485117,17.6601364 7.69549666,18.0433636 L7.69549666,18.0433636 L7.69549666,18.0433636 Z M7.69549666,13.1039091 C7.57679599,13.3886818 7.2496806,13.5222727 6.96681271,13.4027273 C6.68394482,13.2831818 6.55124749,12.9538636 6.66999331,12.6691364 C6.85736789,12.2226364 7.08668729,11.7995909 7.34860535,11.407 L7.34977926,11.4058182 L7.34860535,11.4046818 C7.61752174,11.0039091 7.92246823,10.6312273 8.25653679,10.2949091 C8.58712876,9.96209091 8.95731773,9.65504545 9.36001505,9.38204545 L9.36001505,9.38086364 C9.74650334,9.11836364 10.1690217,8.8875 10.6160117,8.69768182 C11.0641756,8.50663636 11.5367659,8.35781818 12.0268294,8.25936364 C12.5098946,8.16090909 13.0057826,8.10936364 13.5004967,8.10936364 C13.8090552,8.10936364 14.0592793,8.36131818 14.0592793,8.67186364 C14.0592793,8.98240909 13.80901,9.23436364 13.5004967,9.23436364 C13.0628077,9.23436364 12.6414632,9.27772727 12.2445,9.35740909 C11.8289348,9.44063636 11.4273211,9.56836364 11.0478763,9.73004545 C10.6789064,9.88709091 10.3226689,10.0827727 9.98394983,10.3124545 L9.98394983,10.3124545 L9.98277592,10.3124545 C9.65335786,10.5350909 9.33906522,10.7975909 9.04807023,11.0905909 C8.76055184,11.3800455 8.49980769,11.6976364 8.2751388,12.0339545 L8.27396488,12.0327727 C8.04703846,12.3715 7.8526204,12.7300909 7.69549666,13.1039091 L7.69549666,13.1039091 Z" id="Shape"></path>
                        </g>
                    </g>
                </g>
            </g>
        </g>
    </g>
</svg>