<?xml version="1.0" encoding="UTF-8" standalone="no"?>
<svg width="23px" height="33px" viewBox="0 0 23 33" version="1.1" xmlns="http://www.w3.org/2000/svg" xmlns:xlink="http://www.w3.org/1999/xlink">
    <!-- Generator: Sketch 39.1 (31720) - http://www.bohemiancoding.com/sketch -->
    <title>padlocks</title>
    <desc>Created with Sketch.</desc>
    <defs></defs>
    <g id="Welcome" stroke="none" stroke-width="1" fill="none" fill-rule="evenodd">
        <g id="Facilities" transform="translate(-852.000000, -822.000000)" fill="#DC4B85">
            <g id="ICONS" transform="translate(184.000000, 729.000000)">
                <g id="padlocks" transform="translate(668.000000, 93.000000)">
                    <g id="Capa_1">
                        <g id="Group">
                            <path d="M17.825,12.126931 L17.825,5.81482759 C17.825,2.6087069 14.987375,0 11.5,0 C8.012625,0 5.175,2.6087069 5.175,5.81482759 L5.175,12.126931 C2.0608,14.1649655 0,17.6572759 0,21.6206897 C0,27.8952414 5.1589,33 11.5,33 C17.8411,33 23,27.8952414 23,21.6206897 C23,17.6572759 20.9392,14.1649655 17.825,12.126931 L17.825,12.126931 Z M6.325,11.4686379 L6.325,5.81482759 C6.325,3.23627586 8.646275,1.13793103 11.5,1.13793103 C14.353725,1.13793103 16.675,3.23627586 16.675,5.81482759 L16.675,11.4692069 C16.5669,11.4151552 16.4565,11.3673621 16.34725,11.3167241 C16.121275,11.2120345 15.89185,11.1141724 15.6584,11.0237069 C15.508325,10.9656724 15.357675,10.9110517 15.205875,10.8592759 C15.056375,10.8086379 14.908025,10.758 14.756225,10.7136207 C14.50495,10.6396552 14.2508,10.5765 13.994925,10.5196034 C13.88395,10.4951379 13.7724,10.4718103 13.660275,10.4501897 C13.35955,10.3927241 13.0571,10.346069 12.75235,10.3125 C12.68335,10.3051034 12.61435,10.3005517 12.54535,10.2942931 C12.197475,10.2618621 11.8496,10.2413793 11.5,10.2413793 C11.1504,10.2413793 10.802525,10.2618621 10.4558,10.2937241 C10.3868,10.2999828 10.317225,10.3045345 10.2488,10.311931 C9.94405,10.3455 9.6416,10.3921552 9.340875,10.4496207 C9.22875,10.4706724 9.1172,10.494569 9.006225,10.5190345 C8.75035,10.575931 8.4962,10.6390862 8.244925,10.7130517 C8.093125,10.757431 7.9442,10.8086379 7.795275,10.8587069 C7.643475,10.9104828 7.49225,10.9651034 7.34275,11.0231379 C7.108725,11.1130345 6.879875,11.2114655 6.6539,11.3161552 C6.5435,11.3667931 6.4331,11.4145862 6.325,11.4686379 L6.325,11.4686379 Z M11.5,31.862069 C5.793125,31.862069 1.15,27.2676724 1.15,21.6206897 C1.15,17.9013621 3.171125,14.6480172 6.177225,12.854069 C6.706225,12.5388621 7.259375,12.2731552 7.8292,12.0569483 C7.9304,12.0188276 8.032175,11.9812759 8.134525,11.946 C8.2915,11.8919483 8.44905,11.8401724 8.608325,11.7935172 C8.803825,11.7371897 9.0022,11.6871207 9.2023,11.6421724 C9.34835,11.6091724 9.494975,11.5801552 9.642175,11.5534138 C9.85435,11.5152931 10.06825,11.4811552 10.285025,11.4561207 C10.382775,11.4441724 10.4811,11.433931 10.579425,11.4253966 C10.8836,11.3986552 11.1895,11.3793103 11.5,11.3793103 C11.8105,11.3793103 12.1164,11.3986552 12.420575,11.4253966 C12.5189,11.4345 12.61665,11.4447414 12.714975,11.4561207 C12.93175,11.4811552 13.14565,11.5152931 13.357825,11.5534138 C13.505025,11.5801552 13.65165,11.6091724 13.7977,11.6421724 C13.9978,11.6871207 14.196175,11.7371897 14.391675,11.7935172 C14.55095,11.8396034 14.7085,11.8919483 14.865475,11.946 C14.9684,11.9812759 15.0696,12.0188276 15.1708,12.0569483 C15.740625,12.2731552 16.293775,12.5388621 16.822775,12.854069 C19.828875,14.6480172 21.85,17.9013621 21.85,21.6206897 C21.85,27.2676724 17.206875,31.862069 11.5,31.862069 L11.5,31.862069 Z" id="Shape"></path>
                            <path d="M18.4,21.0517241 L16.641075,21.0517241 C16.5301,20.0657069 16.135075,19.1650345 15.539375,18.4282241 L16.7854,17.1952759 C17.010225,16.9728103 17.010225,16.6132241 16.7854,16.3907586 C16.560575,16.1682931 16.197175,16.1682931 15.97235,16.3907586 L14.726325,17.6237069 C13.9817,17.0342586 13.071475,16.6433793 12.075,16.533569 L12.075,14.7931034 C12.075,14.4784655 11.817975,14.2241379 11.5,14.2241379 C11.182025,14.2241379 10.925,14.4784655 10.925,14.7931034 L10.925,16.533569 C9.928525,16.6433793 9.0183,17.0342586 8.273675,17.6237069 L7.02765,16.3907586 C6.802825,16.1682931 6.439425,16.1682931 6.2146,16.3907586 C5.989775,16.6132241 5.989775,16.9728103 6.2146,17.1952759 L7.460625,18.4282241 C6.864925,19.1650345 6.4699,20.0657069 6.358925,21.0517241 L4.6,21.0517241 C4.282025,21.0517241 4.025,21.3060517 4.025,21.6206897 C4.025,21.9353276 4.282025,22.1896552 4.6,22.1896552 L6.358925,22.1896552 C6.4699,23.1756724 6.864925,24.0763448 7.460625,24.8131552 L6.2146,26.0461034 C5.989775,26.268569 5.989775,26.6281552 6.2146,26.8506207 C6.326725,26.961569 6.473925,27.0173276 6.621125,27.0173276 C6.768325,27.0173276 6.915525,26.961569 7.02765,26.8506207 L8.273675,25.6176724 C9.0183,26.2071207 9.928525,26.598 10.925,26.7078103 L10.925,28.4482759 C10.925,28.7629138 11.182025,29.0172414 11.5,29.0172414 C11.817975,29.0172414 12.075,28.7629138 12.075,28.4482759 L12.075,26.7078103 C13.071475,26.598 13.9817,26.2071207 14.726325,25.6176724 L15.97235,26.8506207 C16.084475,26.961569 16.231675,27.0173276 16.378875,27.0173276 C16.526075,27.0173276 16.673275,26.961569 16.7854,26.8506207 C17.010225,26.6281552 17.010225,26.268569 16.7854,26.0461034 L15.539375,24.8131552 C16.135075,24.0763448 16.5301,23.1756724 16.641075,22.1896552 L18.4,22.1896552 C18.717975,22.1896552 18.975,21.9353276 18.975,21.6206897 C18.975,21.3060517 18.717975,21.0517241 18.4,21.0517241 L18.4,21.0517241 Z M11.5,25.6034483 C9.281075,25.6034483 7.475,23.8163276 7.475,21.6206897 C7.475,19.4250517 9.281075,17.637931 11.5,17.637931 C13.718925,17.637931 15.525,19.4250517 15.525,21.6206897 C15.525,23.8163276 13.718925,25.6034483 11.5,25.6034483 L11.5,25.6034483 Z" id="Shape"></path>
                        </g>
                    </g>
                </g>
            </g>
        </g>
    </g>
</svg>