<?xml version="1.0" encoding="UTF-8" standalone="no"?>
<svg width="27px" height="27px" viewBox="0 0 27 27" version="1.1" xmlns="http://www.w3.org/2000/svg" xmlns:xlink="http://www.w3.org/1999/xlink">
    <!-- Generator: Sketch 39.1 (31720) - http://www.bohemiancoding.com/sketch -->
    <title>printer-services</title>
    <desc>Created with Sketch.</desc>
    <defs></defs>
    <g id="Welcome" stroke="none" stroke-width="1" fill="none" fill-rule="evenodd">
        <g id="Facilities" transform="translate(-1043.000000, -780.000000)" fill="#DC4B85">
            <g id="ICONS" transform="translate(184.000000, 729.000000)">
                <g id="printer-services" transform="translate(859.000000, 51.000000)">
                    <g id="Layer_1">
                        <g id="Group">
                            <path d="M26.4375,3.42151875 L21.0124125,3.42151875 L21.0124125,0.5625 C21.0124125,0.25183125 20.760525,0 20.4499125,0 L6.76395,0 C6.4533375,0 6.20145,0.25183125 6.20145,0.5625 L6.20145,3.42151875 L0.5625,3.42151875 C0.25183125,3.42151875 0,3.67335 0,3.98401875 L0,20.2361063 C0,20.546775 0.25183125,20.7986063 0.5625,20.7986063 L6.20145,20.7986063 L6.20145,26.4375 C6.20145,26.7481688 6.4533375,27 6.76395,27 L20.4499125,27 C20.760525,27 21.0124125,26.7481688 21.0124125,26.4375 L21.0124125,20.79855 L26.4375,20.79855 C26.7481125,20.79855 27,20.5467188 27,20.23605 L27,3.98401875 C27,3.67335 26.7481125,3.42151875 26.4375,3.42151875 L26.4375,3.42151875 Z M7.32645,1.125 L19.8874125,1.125 L19.8874125,3.42151875 L7.32645,3.42151875 L7.32645,1.125 L7.32645,1.125 Z M19.8874125,25.875 L7.32645,25.875 L7.32645,12.030975 L19.8874125,12.030975 L19.8874125,25.875 L19.8874125,25.875 Z M25.875,19.67355 L21.0124125,19.67355 L21.0124125,12.030975 L23.0160375,12.030975 C23.32665,12.030975 23.5785375,11.7791437 23.5785375,11.468475 C23.5785375,11.1578062 23.32665,10.905975 23.0160375,10.905975 L20.4499125,10.905975 L6.76395,10.905975 L4.83935625,10.905975 C4.5286875,10.905975 4.27685625,11.1578062 4.27685625,11.468475 C4.27685625,11.7791437 4.5286875,12.030975 4.83935625,12.030975 L6.20145,12.030975 L6.20145,19.67355 L1.125,19.67355 L1.125,4.54651875 L6.76395,4.54651875 L20.4499125,4.54651875 L25.875,4.54651875 L25.875,19.67355 L25.875,19.67355 Z" id="Shape"></path>
                            <path d="M8.90240625,18.232425 L18.3115125,18.232425 C18.622125,18.232425 18.8740125,17.9805938 18.8740125,17.669925 C18.8740125,17.3592563 18.622125,17.107425 18.3115125,17.107425 L8.90240625,17.107425 C8.59179375,17.107425 8.33990625,17.3592563 8.33990625,17.669925 C8.33990625,17.9805938 8.5917375,18.232425 8.90240625,18.232425 L8.90240625,18.232425 Z" id="Shape"></path>
                            <path d="M8.90240625,15.4524938 L18.3115125,15.4524938 C18.622125,15.4524938 18.8740125,15.2006625 18.8740125,14.8899938 C18.8740125,14.579325 18.622125,14.3274938 18.3115125,14.3274938 L8.90240625,14.3274938 C8.59179375,14.3274938 8.33990625,14.579325 8.33990625,14.8899938 C8.33990625,15.2006625 8.5917375,15.4524938 8.90240625,15.4524938 L8.90240625,15.4524938 Z" id="Shape"></path>
                            <path d="M8.90240625,20.79855 L18.3115125,20.79855 C18.622125,20.79855 18.8740125,20.5467187 18.8740125,20.23605 C18.8740125,19.9253812 18.622125,19.67355 18.3115125,19.67355 L8.90240625,19.67355 C8.59179375,19.67355 8.33990625,19.9253812 8.33990625,20.23605 C8.33990625,20.5467187 8.5917375,20.79855 8.90240625,20.79855 L8.90240625,20.79855 Z" id="Shape"></path>
                            <path d="M8.90240625,23.5785375 L18.3115125,23.5785375 C18.622125,23.5785375 18.8740125,23.3267063 18.8740125,23.0160375 C18.8740125,22.7053688 18.622125,22.4535375 18.3115125,22.4535375 L8.90240625,22.4535375 C8.59179375,22.4535375 8.33990625,22.7053688 8.33990625,23.0160375 C8.33990625,23.3267063 8.5917375,23.5785375 8.90240625,23.5785375 L8.90240625,23.5785375 Z" id="Shape"></path>
                            <path d="M15.8243625,7.40548125 C15.8243625,7.71615 16.07625,7.96798125 16.3868625,7.96798125 L23.0160375,7.96798125 C23.32665,7.96798125 23.5785375,7.71615 23.5785375,7.40548125 C23.5785375,7.0948125 23.32665,6.84298125 23.0160375,6.84298125 L16.3868625,6.84298125 C16.07625,6.84298125 15.8243625,7.0948125 15.8243625,7.40548125 L15.8243625,7.40548125 Z" id="Shape"></path>
                        </g>
                    </g>
                </g>
            </g>
        </g>
    </g>
</svg>