<?xml version="1.0" encoding="UTF-8" standalone="no"?>
<svg width="31px" height="33px" viewBox="0 0 31 33" version="1.1" xmlns="http://www.w3.org/2000/svg" xmlns:xlink="http://www.w3.org/1999/xlink">
    <!-- Generator: Sketch 39.1 (31720) - http://www.bohemiancoding.com/sketch -->
    <title>public-computer</title>
    <desc>Created with Sketch.</desc>
    <defs></defs>
    <g id="Welcome" stroke="none" stroke-width="1" fill="none" fill-rule="evenodd">
        <g id="Facilities" transform="translate(-184.000000, -871.000000)" fill="#DC4B85">
            <g id="ICONS" transform="translate(184.000000, 729.000000)">
                <g id="public-computer" transform="translate(0.000000, 142.000000)">
                    <g id="Capa_1">
                        <g id="Group">
                            <path d="M11.0108833,20.9875258 L10.7818458,23.1967168 C10.7633577,23.3749929 10.8198124,23.5528476 10.9372611,23.6861122 C11.0546274,23.8193768 11.2219279,23.8954075 11.397482,23.8954075 L17.9426712,23.8954075 C18.1181428,23.8954075 18.2854433,23.8192925 18.402892,23.6861122 C18.5202583,23.5528476 18.5767129,23.3749929 18.5583074,23.1967168 L18.3292699,20.9875258 L26.4819307,20.9875258 C27.7508395,20.9875258 28.7831175,19.9332943 28.7831175,18.6373996 L28.7831175,2.35012613 C28.783035,1.05423147 27.7506744,0 26.4818481,0 L2.36300635,0 C1.09409752,0 0.0618194814,1.05423147 0.0618194814,2.35012613 L0.0618194814,18.6373996 C0.0618194814,19.9332943 1.09409752,20.9875258 2.36300635,20.9875258 L11.0108833,20.9875258 L11.0108833,20.9875258 Z M17.2545683,22.6311221 L12.0854197,22.6311221 L12.2557741,20.9875258 L17.0841315,20.9875258 L17.2545683,22.6311221 L17.2545683,22.6311221 Z M2.36300635,1.26436971 L26.4818481,1.26436971 C27.0681015,1.26436971 27.5449947,1.75140493 27.5449947,2.35012613 L27.5449947,16.6888373 L1.29985983,16.6888373 L1.29985983,2.35012613 C1.29985983,1.75140493 1.77675297,1.26436971 2.36300635,1.26436971 L2.36300635,1.26436971 Z M1.29985983,18.6373996 L1.29985983,17.953207 L27.5449121,17.953207 L27.5449121,18.6373996 C27.5449121,19.2361208 27.068019,19.723156 26.4817656,19.723156 L2.36300635,19.723156 C1.77675297,19.723156 1.29985983,19.2361208 1.29985983,18.6373996 L1.29985983,18.6373996 Z" id="Shape"></path>
                            <path d="M26.4647632,28.1428468 C26.5770122,27.9540343 26.584688,27.7191144 26.484902,27.5231371 L25.2622959,25.1209189 C25.1557419,24.9116236 24.944037,24.7802977 24.7130186,24.7802977 L4.13183586,24.7802977 C3.90090007,24.7802977 3.68911263,24.9116236 3.58255863,25.1209189 L2.35995251,27.5231371 C2.260249,27.7191144 2.26784231,27.9540343 2.3800913,28.1428468 C2.4923403,28.3316594 2.69298537,28.4468856 2.90922975,28.4468856 L25.9356247,28.4468856 C26.1518691,28.4469699 26.3525142,28.3316594 26.4647632,28.1428468 L26.4647632,28.1428468 Z M3.92863217,27.1826002 L4.50770491,26.0447517 L24.337067,26.0447517 L24.9162223,27.1826002 L3.92863217,27.1826002 L3.92863217,27.1826002 Z" id="Shape"></path>
                            <path d="M27.5449947,29.5847341 L26.5545624,29.5847341 C25.1210767,29.5847341 23.9547602,30.7757703 23.9547602,32.2398262 C23.9547602,32.5889608 24.2319161,32.872011 24.5737804,32.872011 L29.5256941,32.872011 C29.8675584,32.872011 30.1447143,32.5889608 30.1447143,32.2398262 C30.1447969,30.7758546 28.9785628,29.5847341 27.5449947,29.5847341 L27.5449947,29.5847341 Z M25.3418606,31.6076413 C25.5675966,31.1577786 26.0264969,30.8491038 26.5545624,30.8491038 L27.5449947,30.8491038 C28.0730601,30.8491038 28.5319604,31.1577786 28.757779,31.6076413 L25.3418606,31.6076413 L25.3418606,31.6076413 Z" id="Shape"></path>
                        </g>
                    </g>
                </g>
            </g>
        </g>
    </g>
</svg>