<?xml version="1.0" encoding="UTF-8" standalone="no"?>
<svg width="23px" height="35px" viewBox="0 0 23 35" version="1.1" xmlns="http://www.w3.org/2000/svg" xmlns:xlink="http://www.w3.org/1999/xlink">
    <!-- Generator: Sketch 39.1 (31720) - http://www.bohemiancoding.com/sketch -->
    <title>shower</title>
    <desc>Created with Sketch.</desc>
    <defs></defs>
    <g id="Welcome" stroke="none" stroke-width="1" fill="none" fill-rule="evenodd">
        <g id="Facilities" transform="translate(-404.000000, -774.000000)" fill="#DD4B85">
            <g id="ICONS" transform="translate(184.000000, 729.000000)">
                <path d="M235.936216,67.8827356 C235.936216,68.2400114 235.646111,68.5298748 235.288818,68.5298748 C234.931121,68.5298748 234.640915,68.2400114 234.640915,67.8827356 L234.640915,65.4993468 C234.640915,65.1420709 234.931121,64.8527129 235.288818,64.8527129 C235.646111,64.8527129 235.936216,65.1420709 235.936216,65.4993468 L235.936216,67.8827356 Z M235.288818,70.5046451 C234.931121,70.5046451 234.640915,70.7940032 234.640915,71.1512791 L234.640915,73.5350721 C234.640915,73.8919437 234.931121,74.1817061 235.288818,74.1817061 C235.646111,74.1817061 235.936216,73.8919437 235.936216,73.5350721 L235.936216,71.1512791 C235.936216,70.7940032 235.646111,70.5046451 235.288818,70.5046451 L235.288818,70.5046451 Z M239.103889,64.8527129 C238.746191,64.8527129 238.45639,65.1420709 238.45639,65.4993468 L238.45639,67.8827356 C238.45639,68.2400114 238.746191,68.5298748 239.103889,68.5298748 C239.461587,68.5298748 239.751286,68.2400114 239.751286,67.8827356 L239.751286,65.4993468 C239.751286,65.1420709 239.461587,64.8527129 239.103889,64.8527129 L239.103889,64.8527129 Z M223.8431,64.8527129 C223.485402,64.8527129 223.195298,65.1420709 223.195298,65.4993468 L223.195298,67.8827356 C223.195298,68.2400114 223.485402,68.5298748 223.8431,68.5298748 C224.200899,68.5298748 224.490598,68.2400114 224.490598,67.8827356 L224.490598,65.4993468 C224.490598,65.1420709 224.200899,64.8527129 223.8431,64.8527129 L223.8431,64.8527129 Z M239.751286,59.8474145 C239.751286,59.4901386 239.461587,59.2003763 239.103889,59.2003763 C238.746191,59.2003763 238.45639,59.4901386 238.45639,59.8474145 L238.45639,62.2308033 C238.45639,62.5880791 238.746191,62.8775383 239.103889,62.8775383 C239.461587,62.8775383 239.751286,62.5880791 239.751286,62.2308033 L239.751286,59.8474145 Z M242.299187,77.8435057 L220.647397,77.8435057 C220.290104,77.8435057 220,78.133268 220,78.4905439 C220,78.8478198 220.290104,79.1372789 220.647397,79.1372789 L242.299187,79.1372789 C242.656884,79.1372789 242.946989,78.8478198 242.946989,78.4905439 C242.946989,78.133268 242.656884,77.8435057 242.299187,77.8435057 L242.299187,77.8435057 Z M235.936216,59.8474145 C235.936216,59.4901386 235.646111,59.2003763 235.288818,59.2003763 C234.931121,59.2003763 234.640915,59.4901386 234.640915,59.8474145 L234.640915,62.2308033 C234.640915,62.5880791 234.931121,62.8775383 235.288818,62.8775383 C235.646111,62.8775383 235.936216,62.5880791 235.936216,62.2308033 L235.936216,59.8474145 Z M220.187703,54.3238387 C220.187703,52.7584954 221.462867,51.4844305 223.030059,51.4844305 L230.825844,51.4844305 L230.825844,46.2940764 L228.377613,46.2940764 C228.019916,46.2940764 227.730216,46.0043141 227.730216,45.6469371 C227.730216,45.2900655 228.019916,45.0003032 228.377613,45.0003032 L231.450373,45.0003032 C231.465754,44.9998989 231.48083,44.9998989 231.496211,45.0003032 L234.568971,45.0003032 C234.926769,45.0003032 235.216874,45.2900655 235.216874,45.6469371 C235.216874,46.0043141 234.926769,46.2940764 234.568971,46.2940764 L232.12074,46.2940764 L232.12074,51.4844305 L239.91693,51.4844305 C241.484122,51.4844305 242.759286,52.7580912 242.759286,54.3238387 C242.759286,55.889182 241.484122,57.1628427 239.91693,57.1628427 L223.030059,57.1628427 C221.462867,57.1632469 220.187703,55.889182 220.187703,54.3238387 L220.187703,54.3238387 Z M221.483003,54.3238387 C221.483003,55.1762474 222.177149,55.8694737 223.030059,55.8694737 L239.91693,55.8694737 C240.769941,55.8694737 241.463985,55.1762474 241.463985,54.3238387 C241.463985,53.4714301 240.769941,52.7782037 239.91693,52.7782037 L231.483563,52.7782037 C231.476884,52.778608 231.469801,52.778608 231.463021,52.7782037 L223.030059,52.7782037 C222.177149,52.7782037 221.483003,53.4714301 221.483003,54.3238387 L221.483003,54.3238387 Z M228.306074,59.8474145 C228.306074,59.4901386 228.015969,59.2003763 227.658272,59.2003763 C227.300473,59.2003763 227.010773,59.4901386 227.010773,59.8474145 L227.010773,62.2308033 C227.010773,62.5880791 227.300473,62.8775383 227.658272,62.8775383 C228.015969,62.8775383 228.306074,62.5880791 228.306074,62.2308033 L228.306074,59.8474145 Z M224.490598,59.8474145 C224.490598,59.4901386 224.200899,59.2003763 223.8431,59.2003763 C223.485402,59.2003763 223.195298,59.4901386 223.195298,59.8474145 L223.195298,62.2308033 C223.195298,62.5880791 223.485402,62.8775383 223.8431,62.8775383 C224.200899,62.8775383 224.490598,62.5880791 224.490598,62.2308033 L224.490598,59.8474145 Z M227.658272,70.5046451 C227.300473,70.5046451 227.010773,70.7940032 227.010773,71.1512791 L227.010773,73.5350721 C227.010773,73.8919437 227.300473,74.1817061 227.658272,74.1817061 C228.015969,74.1817061 228.306074,73.8919437 228.306074,73.5350721 L228.306074,71.1512791 C228.306074,70.7940032 228.015969,70.5046451 227.658272,70.5046451 L227.658272,70.5046451 Z M231.473343,64.8527129 C231.115645,64.8527129 230.825844,65.1420709 230.825844,65.4993468 L230.825844,67.8827356 C230.825844,68.2400114 231.115645,68.5298748 231.473343,68.5298748 C231.83104,68.5298748 232.121145,68.2400114 232.121145,67.8827356 L232.121145,65.4993468 C232.121145,65.1420709 231.83104,64.8527129 231.473343,64.8527129 L231.473343,64.8527129 Z M232.121145,59.8474145 C232.121145,59.4901386 231.83104,59.2003763 231.473343,59.2003763 C231.115645,59.2003763 230.825844,59.4901386 230.825844,59.8474145 L230.825844,62.2308033 C230.825844,62.5880791 231.115645,62.8775383 231.473343,62.8775383 C231.83104,62.8775383 232.121145,62.5880791 232.121145,62.2308033 L232.121145,59.8474145 Z M228.306074,65.4993468 C228.306074,65.1420709 228.015969,64.8527129 227.658272,64.8527129 C227.300473,64.8527129 227.010773,65.1420709 227.010773,65.4993468 L227.010773,67.8827356 C227.010773,68.2400114 227.300473,68.5298748 227.658272,68.5298748 C228.015969,68.5298748 228.306074,68.2400114 228.306074,67.8827356 L228.306074,65.4993468 Z" id="shower"></path>
            </g>
        </g>
    </g>
</svg>