<?xml version="1.0" encoding="UTF-8" standalone="no"?>
<svg width="32px" height="32px" viewBox="0 0 32 32" version="1.1" xmlns="http://www.w3.org/2000/svg" xmlns:xlink="http://www.w3.org/1999/xlink">
    <!-- Generator: Sketch 39.1 (31720) - http://www.bohemiancoding.com/sketch -->
    <title>towel</title>
    <desc>Created with Sketch.</desc>
    <defs></defs>
    <g id="Welcome" stroke="none" stroke-width="1" fill="none" fill-rule="evenodd">
        <g id="Facilities" transform="translate(-1042.000000, -867.000000)" fill="#DD4B85">
            <g id="ICONS" transform="translate(184.000000, 729.000000)">
                <path d="M888.53776,155.559416 L875.347035,148.051034 C875.471376,147.823186 875.541887,147.562188 875.541887,147.285086 L875.541887,146.737051 C875.541887,146.028664 875.080381,145.426407 874.441134,145.211322 L874.441134,144.928567 C874.441134,144.214527 873.975242,143.595824 873.281993,143.388362 C872.344448,143.108691 871.689465,142.231302 871.689465,141.255322 C871.689465,140.675765 871.926281,140.120705 872.356573,139.692075 C872.786521,139.263789 873.34382,139.027888 873.925196,139.027888 L873.92554,139.027888 C875.158287,139.027888 876.160927,140.026996 876.160927,141.25498 C876.160927,141.538762 876.392067,141.768924 876.676865,141.768924 C876.961748,141.768924 877.192802,141.538762 877.192802,141.25498 C877.192802,139.460201 875.727281,138 873.92554,138 L873.925196,138 C873.067965,138 872.251752,138.342972 871.626693,138.965358 C871.001892,139.588002 870.65759,140.401061 870.65759,141.255322 C870.65759,142.681689 871.614912,143.963894 872.985415,144.373079 C873.238999,144.449057 873.409258,144.67228 873.409258,144.928909 L873.409258,145.211322 C872.770441,145.426407 872.308505,146.028664 872.308505,146.737051 L872.308505,147.285429 C872.308505,147.562188 872.379446,147.823186 872.503357,148.051034 L859.312718,155.559416 C858.502867,156.020167 858,156.883764 858,157.812633 C858,159.24371 859.168943,160.408136 860.605572,160.408136 L862.402584,160.408136 L862.402584,169.21337 C862.402584,169.497495 862.633724,169.727314 862.918522,169.727314 L884.93187,169.727314 C885.216754,169.727314 885.447808,169.497495 885.447808,169.21337 L885.447808,160.408136 L887.24525,160.408136 C888.681879,160.408136 889.850392,159.24371 889.850392,157.812633 C889.850392,156.883764 889.347611,156.020167 888.53776,155.559416 L888.53776,155.559416 Z M873.34038,146.737051 C873.34038,146.415835 873.602735,146.154495 873.925196,146.154495 C874.247657,146.154495 874.510012,146.415835 874.510012,146.737051 L874.510012,147.285086 C874.510012,147.485525 874.4082,147.662236 874.253418,147.767252 C874.252731,147.767594 874.251699,147.768279 874.251011,147.768622 C874.15797,147.831152 874.045839,147.867642 873.925196,147.867642 C873.804982,147.867642 873.69311,147.831152 873.599725,147.768965 C873.599037,147.768279 873.598091,147.767594 873.59706,147.766909 C873.442536,147.661893 873.340724,147.485182 873.340724,147.285429 L873.340724,146.737051 L873.34038,146.737051 Z M884.415932,166.274295 C884.052884,166.336225 883.80833,166.457687 883.600407,166.561076 C883.344072,166.688876 883.158678,166.780872 882.730106,166.780872 C882.301447,166.780872 882.116397,166.688534 881.860148,166.561076 C881.566236,166.414858 881.20078,166.232837 880.528599,166.232837 C879.856504,166.232837 879.491048,166.414858 879.197135,166.561076 C878.9408,166.688876 878.75575,166.780872 878.327178,166.780872 C877.898519,166.780872 877.71347,166.688534 877.457135,166.561076 C877.163566,166.414858 876.797766,166.232837 876.125671,166.232837 C875.453576,166.232837 875.08812,166.414858 874.794551,166.561076 C874.538216,166.688534 874.352822,166.780872 873.924508,166.780872 C873.495936,166.780872 873.310886,166.688534 873.054551,166.561076 C872.760638,166.414858 872.395182,166.232837 871.723087,166.232837 C871.050906,166.232837 870.68545,166.414858 870.391882,166.561076 C870.135632,166.688534 869.950583,166.780872 869.521924,166.780872 C869.093696,166.780872 868.90856,166.688534 868.652311,166.561076 C868.358742,166.414858 867.992942,166.232837 867.321105,166.232837 C866.64901,166.232837 866.28321,166.414858 865.989642,166.561076 C865.733393,166.688534 865.548257,166.780872 865.119685,166.780872 C864.691026,166.780872 864.505976,166.688534 864.249727,166.561076 C864.041804,166.457687 863.79725,166.336225 863.434116,166.274295 L863.434116,159.899503 C863.434116,159.897533 863.434459,159.89582 863.434459,159.894192 L863.434459,159.891451 C863.436179,159.571264 863.697846,159.311636 864.019275,159.311636 L883.831117,159.311636 C884.153578,159.311636 884.415932,159.572977 884.415932,159.894192 L884.415932,166.274295 Z M863.434459,168.699426 L863.434459,167.327966 C863.559058,167.366426 863.665944,167.419277 863.788479,167.480522 C864.082047,167.626739 864.447503,167.808761 865.120028,167.808761 C865.792124,167.808761 866.15758,167.626739 866.451148,167.480522 C866.707483,167.352721 866.892533,167.260725 867.321105,167.260725 C867.749764,167.260725 867.934813,167.352721 868.190805,167.480522 C868.484717,167.626739 868.850173,167.808761 869.522268,167.808761 C870.194363,167.808761 870.559819,167.626739 870.853474,167.480522 C871.109723,167.352721 871.294773,167.260725 871.723431,167.260725 C872.15166,167.260725 872.337053,167.352721 872.593388,167.480522 C872.886957,167.626739 873.252413,167.808761 873.924508,167.808761 C874.596689,167.808761 874.962489,167.626739 875.256058,167.480522 C875.512307,167.352721 875.697443,167.260725 876.126015,167.260725 C876.554587,167.260725 876.739723,167.352721 876.995972,167.480522 C877.289885,167.626739 877.655341,167.808761 878.327522,167.808761 C878.999617,167.808761 879.365073,167.626739 879.658641,167.480522 C879.914891,167.352721 880.10037,167.260725 880.528599,167.260725 C880.957257,167.260725 881.142651,167.352721 881.3989,167.480522 C881.692469,167.626739 882.058268,167.808761 882.730449,167.808761 C883.402545,167.808761 883.768344,167.626739 884.061913,167.480522 C884.184878,167.419277 884.291333,167.366426 884.416276,167.327623 L884.416276,168.699426 L863.434459,168.699426 Z M887.24525,159.380248 L885.36285,159.380248 C885.146844,158.743471 884.542251,158.283748 883.831117,158.283748 L864.019275,158.283748 C863.308141,158.283748 862.703204,158.743471 862.487628,159.380248 L860.605228,159.380248 C859.737593,159.380248 859.031876,158.676915 859.031876,157.812633 C859.031876,157.251491 859.335505,156.730181 859.824614,156.451794 L873.311488,148.774753 C873.501009,148.852359 873.7079,148.89553 873.925196,148.89553 C874.142234,148.89553 874.349469,148.852359 874.538904,148.774753 L888.025864,156.451794 C888.514887,156.730181 888.818516,157.251491 888.818516,157.812633 C888.818516,158.676915 888.112799,159.380248 887.24525,159.380248 L887.24525,159.380248 Z" id="towel"></path>
            </g>
        </g>
    </g>
</svg>