<?xml version="1.0" encoding="UTF-8" standalone="no"?>
<svg width="41px" height="24px" viewBox="0 0 41 24" version="1.1" xmlns="http://www.w3.org/2000/svg" xmlns:xlink="http://www.w3.org/1999/xlink">
    <!-- Generator: Sketch 39.1 (31720) - http://www.bohemiancoding.com/sketch -->
    <title>two-seat-sofa</title>
    <desc>Created with Sketch.</desc>
    <defs></defs>
    <g id="Welcome" stroke="none" stroke-width="1" fill="none" fill-rule="evenodd">
        <g id="Facilities" transform="translate(-395.000000, -735.000000)" fill="#DD4B85">
            <g id="ICONS" transform="translate(184.000000, 729.000000)">
                <g id="two-seat-sofa" transform="translate(211.000000, 6.000000)">
                    <path d="M3.87115805,10.3865752 C2.9065075,10.3865752 2.121824,9.602817 2.121824,8.63941698 C2.121824,7.67545206 2.9065075,6.8916939 3.87115805,6.8916939 C4.83614795,6.8916939 5.62083145,7.67545206 5.62083145,8.63941698 C5.62083145,9.602817 4.83614795,10.3865752 3.87115805,10.3865752 L3.87115805,10.3865752 Z M3.87115805,7.70505342 C3.35546365,7.70505342 2.93614381,8.12387878 2.93614381,8.63896506 C2.93614381,9.15393835 3.35591611,9.57321563 3.87115805,9.57321563 C4.38673934,9.57321563 4.80651164,9.15393835 4.80651164,8.63896506 C4.80651164,8.12433071 4.38673934,7.70505342 3.87115805,7.70505342 L3.87115805,7.70505342 Z" id="Fill-1"></path>
                    <path d="M36.8548997,10.3865752 C35.8903622,10.3865752 35.1056787,9.602817 35.1056787,8.63941698 C35.1056787,7.67545206 35.8903622,6.8916939 36.8548997,6.8916939 C37.8200027,6.8916939 38.6046862,7.67545206 38.6046862,8.63941698 C38.6046862,9.602817 37.8200027,10.3865752 36.8548997,10.3865752 L36.8548997,10.3865752 Z M36.8548997,7.70505342 C36.3393184,7.70505342 35.9199986,8.12387878 35.9199986,8.63896506 C35.9199986,9.15393835 36.3393184,9.57321563 36.8548997,9.57321563 C37.3705941,9.57321563 37.7903664,9.15393835 37.7903664,8.63896506 C37.7903664,8.12433071 37.3705941,7.70505342 36.8548997,7.70505342 L36.8548997,7.70505342 Z" id="Fill-2"></path>
                    <path d="M40.7260577,8.63896506 C40.7260577,6.50687621 38.9896189,4.77237205 36.8548997,4.77237205 C36.5222265,4.77237205 36.1988287,4.81474041 35.8903622,4.89371503 C35.6239748,2.20597927 33.3501233,0.0986335416 30.5898744,0.0986335416 L10.1366358,0.0986335416 C7.37638687,0.0986335416 5.09993373,2.20507541 4.83309383,4.8932631 C4.52553228,4.81428848 4.20337882,4.77237205 3.87161051,4.77237205 C1.73655198,4.77237205 0,6.50687621 0,8.63896506 C0,10.4634031 1.27956462,12.0266261 3.03116098,12.4132515 L3.03116098,18.772008 C3.03116098,18.7755104 3.03025606,18.778222 3.03025606,18.7812725 C3.03025606,19.6723638 3.57637858,20.4384968 4.35144725,20.7633209 C4.22509703,20.9689486 4.15078002,21.2099399 4.15078002,21.4685563 C4.15078002,21.9995731 4.56308669,22.414783 4.8185019,22.6205238 L4.8185019,23.5455098 C4.8185019,23.7701186 5.0009575,23.952472 5.22583148,23.952472 L6.9640802,23.952472 C7.18906729,23.952472 7.37152289,23.7701186 7.37152289,23.5455098 L7.37152289,22.6205238 C7.62693811,22.414783 8.03958412,21.9995731 8.03958412,21.4685563 C8.03958412,21.2770513 7.99897559,21.0948109 7.92646844,20.9297438 L32.8000418,20.9297438 C32.7275346,21.0948109 32.6869261,21.2770513 32.6869261,21.4685563 C32.6869261,21.9995731 33.0995721,22.414783 33.3549873,22.6205238 L33.3549873,23.5455098 C33.3549873,23.7701186 33.5374429,23.952472 33.7619775,23.952472 L35.5006787,23.952472 C35.7255527,23.952472 35.9080083,23.7701186 35.9080083,23.5455098 L35.9080083,22.6205238 C36.1634235,22.414783 36.5757302,21.9995731 36.5757302,21.4685563 C36.5757302,21.2099399 36.5014132,20.9689486 36.3750629,20.7633209 C37.1501316,20.4384968 37.6962541,19.6723638 37.6962541,18.7812725 C37.6962541,18.7786739 37.6953492,18.7755104 37.6953492,18.7724599 L37.6953492,12.4132515 C39.4464931,12.0266261 40.7260577,10.4634031 40.7260577,8.63896506 L40.7260577,8.63896506 Z M10.1366358,0.911993068 L30.5898744,0.911993068 C33.0033106,0.911993068 34.9805728,2.81280716 35.0999098,5.19469986 C33.8454569,5.83508349 32.9838547,7.13788231 32.9838547,8.63941698 L32.9838547,8.6508282 L32.9838547,8.66144853 L32.9838547,12.5014907 C32.6308207,12.3558565 32.159807,12.2296553 31.5566742,12.1192716 C30.3031262,11.8893526 28.6407781,11.7626995 26.8768521,11.7626995 C25.1134917,11.7626995 23.4515961,11.8893526 22.1975956,12.1192716 C21.3223064,12.2794805 20.7209834,12.4718893 20.3630854,12.7124286 C20.0055267,12.4718893 19.4042038,12.2794805 18.5289146,12.1192716 C17.2749141,11.8893526 15.6130185,11.7626995 13.8492056,11.7626995 C12.0852797,11.7626995 10.423384,11.8893526 9.16983603,12.1192716 C8.56670321,12.2296553 8.0956895,12.3558565 7.74265545,12.5014907 L7.74265545,8.66144853 C7.74265545,8.65794608 7.74265545,8.65433065 7.74220299,8.6508282 C7.74265545,8.64732574 7.74265545,8.64337136 7.74265545,8.63941698 C7.74265545,7.13788231 6.88105329,5.83508349 5.62660035,5.19469986 C5.7459374,2.81280716 7.72319955,0.911993068 10.1366358,0.911993068 L10.1366358,0.911993068 Z M32.9838547,13.4208276 L32.9838547,15.2598404 C32.9838547,15.4946176 32.792463,15.6857836 32.5574086,15.6857836 L20.770415,15.6857836 L20.770415,13.4203757 C21.073565,13.1211986 23.1432427,12.5765109 26.8768521,12.5765109 C30.6137418,12.5765109 32.6834195,13.1219895 32.9838547,13.4208276 L32.9838547,13.4208276 Z M19.9560952,13.4208276 L19.9560952,15.6857836 L8.16910158,15.6857836 C7.93359472,15.6857836 7.74220299,15.4946176 7.74220299,15.2598404 L7.74220299,13.4208276 C8.04309071,13.1219895 10.1127684,12.5765109 13.8492056,12.5765109 C17.5855298,12.5765109 19.6552075,13.1219895 19.9560952,13.4208276 L19.9560952,13.4208276 Z M7.22481185,21.4685563 C7.22481185,21.6694388 6.93851605,21.9470363 6.74588004,22.0709779 C6.62835285,22.1456592 6.55720308,22.2753629 6.55720308,22.4143311 L6.55720308,23.1386606 L5.63282171,23.1386606 L5.63282171,22.4143311 C5.63282171,22.2762667 5.56167195,22.146902 5.44504968,22.0718818 C5.25150874,21.9470363 4.96521295,21.6689869 4.96521295,21.4685563 C4.96521295,21.1715259 5.20728051,20.9297438 5.50466164,20.9297438 L6.68536315,20.9297438 C6.98308363,20.9297438 7.22481185,21.1715259 7.22481185,21.4685563 L7.22481185,21.4685563 Z M35.2823654,22.0709779 C35.1648382,22.1456592 35.093236,22.2753629 35.093236,22.4143311 L35.093236,23.1386606 L34.1693071,23.1386606 L34.1693071,22.4143311 C34.1693071,22.2762667 34.0977049,22.146902 33.9815351,22.0718818 C33.7879941,21.9470363 33.5012459,21.6689869 33.5012459,21.4685563 C33.5012459,21.1715259 33.7434266,20.9297438 34.041147,20.9297438 L35.2218486,20.9297438 C35.5192297,20.9297438 35.7612972,21.1711869 35.7612972,21.4685563 C35.7612972,21.6689869 35.4750015,21.9470363 35.2823654,22.0709779 L35.2823654,22.0709779 Z M37.4011353,11.6422604 L37.4011353,11.6418084 C37.3582645,11.6497172 36.9923352,11.6920856 36.8548997,11.6920856 C36.351648,11.6920856 35.8727162,11.574245 35.4312257,11.3417275 C35.2324814,11.2371059 34.9858892,11.3134819 34.8811441,11.5119918 C34.776399,11.7106146 34.8524127,11.9564641 35.0517226,12.0615377 C35.603614,12.3519021 36.2271076,12.5054451 36.8553521,12.5054451 C36.8638358,12.5054451 36.8722064,12.5049932 36.8810294,12.5049932 L36.8810294,18.7812725 C36.8810294,18.7835321 36.8814819,18.7852269 36.8814819,18.7870346 C36.8783146,19.5205156 36.2804982,20.1163843 35.5452463,20.1163843 L5.18081144,20.1163843 C4.44601196,20.1163843 3.84819557,19.5205156 3.84457587,18.7874865 C3.84457587,18.7852269 3.84548079,18.7835321 3.84548079,18.7812725 L3.84548079,12.5049932 C3.85385135,12.5054451 3.86267438,12.505897 3.87115805,12.505897 C4.49940256,12.505897 5.12289621,12.3523541 5.67478763,12.0615377 C5.873645,11.9564641 5.95011121,11.7106146 5.84491362,11.5119918 C5.7401685,11.3134819 5.49357631,11.2371059 5.29483205,11.3417275 C4.8595629,11.5711945 4.36728344,11.6920856 3.87115805,11.6920856 C3.6926615,11.6920856 3.51540923,11.6753642 3.34132419,11.644407 L3.34132419,11.6453109 C1.89072866,11.3924565 0.814319809,10.125812 0.814319809,8.63896506 C0.814319809,6.95564187 2.18584748,5.58573157 3.87115805,5.58573157 C5.55680797,5.58573157 6.92788318,6.95564187 6.92788318,8.63534962 L6.92743072,8.65873696 C6.92743072,8.6667587 6.92743072,8.67466746 6.92788318,8.68257622 L6.92788318,15.2593885 C6.92788318,15.9430443 7.48463858,16.4991432 8.16910158,16.4991432 L32.5574086,16.4991432 C33.2414192,16.4991432 33.7981746,15.9430443 33.7981746,15.2593885 L33.7981746,8.68212429 C33.798627,8.67511939 33.7990795,8.6680015 33.7990795,8.6609966 C33.7990795,8.65263591 33.798627,8.64382329 33.7981746,8.63896506 C33.7981746,6.95564187 35.1697022,5.58573157 36.8548997,5.58573157 C38.5406627,5.58573157 39.9117379,6.95564187 39.9117379,8.63896506 C39.9117379,10.1200499 38.8436996,11.38274 37.4011353,11.6422604 L37.4011353,11.6422604 Z" id="Fill-3"></path>
                    <path d="M13.5155144,3.7154227 C13.3564737,3.55645661 13.0984569,3.55645661 12.9394162,3.7154227 L12.6384154,4.0159556 L12.3375276,3.7154227 C12.178487,3.55645661 11.9209226,3.55645661 11.7617688,3.7154227 C11.6027282,3.8742758 11.6027282,4.13153648 11.7617688,4.29038959 L12.0627697,4.59103547 L11.7617688,4.89156837 C11.6027282,5.05042147 11.6027282,5.30768215 11.7617688,5.46664824 C11.8414023,5.54607479 11.9455818,5.58573157 12.0498745,5.58573157 C12.1537147,5.58573157 12.2580073,5.54607479 12.3375276,5.46664824 L12.6384154,5.16600236 L12.9394162,5.46664824 C13.0189365,5.54607479 13.1232292,5.58573157 13.2275218,5.58573157 C13.3317014,5.58573157 13.4359941,5.54607479 13.5155144,5.46664824 C13.6746681,5.30768215 13.6746681,5.05042147 13.5155144,4.89156837 L13.2146267,4.59103547 L13.5155144,4.29038959 C13.6746681,4.13153648 13.6746681,3.8742758 13.5155144,3.7154227 L13.5155144,3.7154227 Z" id="Fill-4"></path>
                    <path d="M13.5155144,8.18748781 C13.3564737,8.02852173 13.0984569,8.02852173 12.9394162,8.18748781 L12.6384154,8.48802071 L12.3375276,8.18748781 C12.178487,8.02852173 11.9209226,8.02852173 11.7617688,8.18748781 C11.6027282,8.34634092 11.6027282,8.6036016 11.7617688,8.7624547 L12.0627697,9.06310058 L11.7617688,9.36363348 C11.6027282,9.52248658 11.6027282,9.77974727 11.7617688,9.93871335 C11.8414023,10.0181399 11.9455818,10.0577967 12.0498745,10.0577967 C12.1537147,10.0577967 12.2580073,10.0181399 12.3375276,9.93871335 L12.6384154,9.63806747 L12.9394162,9.93871335 C13.0189365,10.0181399 13.1232292,10.0577967 13.2275218,10.0577967 C13.3317014,10.0577967 13.4359941,10.0181399 13.5155144,9.93871335 C13.6746681,9.77974727 13.6746681,9.52248658 13.5155144,9.36363348 L13.2146267,9.06310058 L13.5155144,8.7624547 C13.6746681,8.6036016 13.6746681,8.34634092 13.5155144,8.18748781 L13.5155144,8.18748781 Z" id="Fill-5"></path>
                    <path d="M28.6637405,4.59103547 L28.9642889,4.29038959 C29.1233296,4.13198841 29.1233296,3.8742758 28.9642889,3.7154227 C28.8055876,3.55645661 28.5475707,3.55645661 28.3885301,3.7154227 L28.0876424,4.0159556 L27.7866415,3.7154227 C27.6280533,3.55645661 27.3700365,3.55645661 27.2109958,3.7154227 C27.051842,3.8742758 27.051842,4.13198841 27.2109958,4.29038959 L27.5118835,4.59103547 L27.2109958,4.89156837 C27.051842,5.05042147 27.051842,5.30813408 27.2109958,5.46664824 C27.2905161,5.54607479 27.3948088,5.58573157 27.4989883,5.58573157 C27.603281,5.58573157 27.7075737,5.54652672 27.787094,5.46664824 L28.0876424,5.16645429 L28.3885301,5.46664824 C28.4680504,5.54607479 28.5723431,5.58573157 28.6766357,5.58573157 C28.7809284,5.58573157 28.8851079,5.54652672 28.9646283,5.46664824 C29.123782,5.30768215 29.123782,5.05042147 28.9646283,4.89156837 L28.6637405,4.59103547 Z" id="Fill-6"></path>
                    <path d="M28.9642889,8.18748781 C28.8055876,8.02852173 28.5475707,8.02852173 28.3885301,8.18748781 L28.0876424,8.48802071 L27.7866415,8.18748781 C27.6280533,8.02852173 27.3700365,8.02852173 27.2109958,8.18748781 C27.051842,8.34634092 27.051842,8.6036016 27.2109958,8.7624547 L27.5118835,9.06310058 L27.2109958,9.36363348 C27.051842,9.52248658 27.051842,9.77974727 27.2109958,9.93871335 C27.2905161,10.0181399 27.3948088,10.0577967 27.4989883,10.0577967 C27.603281,10.0577967 27.7075737,10.0181399 27.787094,9.93871335 L28.0876424,9.63806747 L28.3885301,9.93871335 C28.4680504,10.0181399 28.5723431,10.0577967 28.6766357,10.0577967 C28.7809284,10.0577967 28.8851079,10.0181399 28.9646283,9.93871335 C29.123782,9.77974727 29.123782,9.52248658 28.9646283,9.36363348 L28.6637405,9.06310058 L28.9646283,8.7624547 C29.1233296,8.6036016 29.1233296,8.34634092 28.9642889,8.18748781 L28.9642889,8.18748781 Z" id="Fill-7"></path>
                    <path d="M20.9387311,4.59103547 L21.239732,4.29038959 C21.3987726,4.13153648 21.3987726,3.8742758 21.239732,3.7154227 C21.0805782,3.55645661 20.8230138,3.55645661 20.6639731,3.7154227 L20.3630854,4.0159556 L20.0625371,3.7154227 C19.9034964,3.55645661 19.6454795,3.55645661 19.4864389,3.7154227 C19.3272851,3.8742758 19.3272851,4.13153648 19.4864389,4.29038959 L19.7873266,4.59103547 L19.4864389,4.89156837 C19.3272851,5.05042147 19.3272851,5.30768215 19.4864389,5.46664824 C19.5659592,5.54607479 19.6702519,5.58573157 19.7744314,5.58573157 C19.8787241,5.58573157 19.9830167,5.54652672 20.0625371,5.46664824 L20.3630854,5.16645429 L20.6639731,5.46664824 C20.7434935,5.54652672 20.8477861,5.58573157 20.9520788,5.58573157 C21.055919,5.58573157 21.1600985,5.54652672 21.239732,5.46664824 C21.3987726,5.30813408 21.3987726,5.05042147 21.2400713,4.89156837 L20.9387311,4.59103547 Z" id="Fill-8"></path>
                    <path d="M21.239732,8.18748781 C21.0805782,8.02852173 20.8230138,8.02852173 20.6639731,8.18748781 L20.3630854,8.48802071 L20.0625371,8.18748781 C19.9034964,8.02852173 19.6454795,8.02852173 19.4864389,8.18748781 C19.3272851,8.34634092 19.3272851,8.6036016 19.4864389,8.7624547 L19.7873266,9.06310058 L19.4864389,9.36363348 C19.3272851,9.52248658 19.3272851,9.78019919 19.4864389,9.9390523 C19.5659592,10.0185918 19.6702519,10.0582486 19.7744314,10.0582486 C19.8787241,10.0582486 19.9830167,10.0185918 20.0625371,9.9390523 L20.3630854,9.6385194 L20.6639731,9.9390523 C20.7434935,10.0185918 20.8477861,10.0582486 20.9520788,10.0582486 C21.055919,10.0582486 21.1600985,10.0185918 21.239732,9.9390523 C21.3987726,9.78019919 21.3987726,9.52248658 21.2400713,9.36363348 L20.9391836,9.06310058 L21.2400713,8.7624547 C21.3987726,8.6036016 21.3987726,8.34634092 21.239732,8.18748781 L21.239732,8.18748781 Z" id="Fill-9"></path>
                </g>
            </g>
        </g>
    </g>
</svg>