<?xml version="1.0" encoding="UTF-8" standalone="no"?>
<svg width="30px" height="25px" viewBox="0 0 30 25" version="1.1" xmlns="http://www.w3.org/2000/svg" xmlns:xlink="http://www.w3.org/1999/xlink">
    <!-- Generator: Sketch 39.1 (31720) - http://www.bohemiancoding.com/sketch -->
    <title>wifi</title>
    <desc>Created with Sketch.</desc>
    <defs>
        <polygon id="path-1" points="0.0680579365 0.0466380955 30.6260714 0.0466380955 30.6260714 25.6509525 0.0680579365 25.6509525"></polygon>
    </defs>
    <g id="Welcome" stroke="none" stroke-width="1" fill="none" fill-rule="evenodd">
        <g id="Facilities" transform="translate(-184.000000, -733.000000)">
            <g id="ICONS" transform="translate(184.000000, 729.000000)">
                <g id="wifi" transform="translate(0.000000, 4.000000)">
                    <path d="M14.9716117,24.4850001 C13.5367236,24.4850001 12.3615899,23.2817373 12.3615899,21.8021437 C12.3615899,20.3213841 13.5367236,19.1192872 14.9716117,19.1192872 C16.4121714,19.1192872 17.5816336,20.3213841 17.5816336,21.8021437 C17.5816336,23.2817373 16.4121714,24.4850001 14.9716117,24.4850001 L14.9716117,24.4850001 Z M14.9716117,20.0532151 C14.0324122,20.0532151 13.2701633,20.8367351 13.2701633,21.8021437 C13.2701633,22.7675522 14.0324122,23.5510723 14.9716117,23.5510723 C15.9108113,23.5510723 16.6730601,22.7675522 16.6730601,21.8021437 C16.6730601,20.8367351 15.9108113,20.0532151 14.9716117,20.0532151 L14.9716117,20.0532151 Z" id="Fill-1" fill="#DD4B85"></path>
                    <path d="M20.9663816,16.1087982 C20.8518174,16.1087982 20.736119,16.063326 20.6431064,15.9723817 C19.1276831,14.4146694 17.116571,13.5576943 14.9716117,13.5576943 C12.8311896,13.5576943 10.8155404,14.4146694 9.30011702,15.9723817 C9.12316639,16.1542703 8.83505446,16.1542703 8.65810382,15.9723817 C8.48115319,15.7904932 8.48115319,15.4943413 8.65810382,15.3112867 C10.3459406,13.5810134 12.5884497,12.6249324 14.9716117,12.6249324 C17.3559081,12.6249324 19.60182,13.5763496 21.2862539,15.3112867 C21.4632046,15.4943413 21.4632046,15.7904932 21.2862539,15.9723817 C21.1977786,16.063326 21.0820801,16.1087982 20.9663816,16.1087982 L20.9663816,16.1087982 Z" id="Fill-2" fill="#DD4B85"></path>
                    <g id="Group-6">
                        <mask id="mask-2" fill="white">
                            <use xlink:href="#path-1"></use>
                        </mask>
                        <g id="Clip-4"></g>
                        <path d="M25.2290771,11.7271491 C25.1145129,11.7271491 24.9988144,11.681677 24.9103391,11.5907327 C19.4294066,5.95685074 10.5149512,5.95685074 5.0374216,11.5907327 C4.86047097,11.7726212 4.57235903,11.7726212 4.3954084,11.5907327 C4.21845776,11.4088441 4.21845776,11.1126922 4.3954084,10.9308036 C10.2268393,4.9366424 19.7175185,4.9366424 25.5523523,10.9308036 C25.7304372,11.1126922 25.7304372,11.4088441 25.5523523,11.5907327 C25.4638769,11.681677 25.3447756,11.7271491 25.2290771,11.7271491 L25.2290771,11.7271491 Z" id="Fill-3" fill="#DD4B85" mask="url(#mask-2)"></path>
                        <path d="M29.4917725,7.34550003 C29.376074,7.34550003 29.2615098,7.30002789 29.1730345,7.20908361 C21.3429689,-0.838319766 8.60479177,-0.838319766 0.775860476,7.20908361 C0.597775542,7.39097218 0.309663611,7.39097218 0.132712976,7.20908361 C-0.0442376587,7.02719503 -0.0442376587,6.73104313 0.132712976,6.54915455 C8.31667984,-1.86319191 21.6310808,-1.8585281 29.8105105,6.54915455 C29.9885954,6.73104313 29.9885954,7.02719503 29.8105105,7.20908361 C29.7220352,7.30002789 29.607471,7.34550003 29.4917725,7.34550003 L29.4917725,7.34550003 Z" id="Fill-5" fill="#DD4B85" mask="url(#mask-2)"></path>
                    </g>
                </g>
            </g>
        </g>
    </g>
</svg>